<?xml version="1.0" standalone="no"?>
<!DOCTYPE svg PUBLIC "-//W3C//DTD SVG 20010904//EN"
 "http://www.w3.org/TR/2001/REC-SVG-20010904/DTD/svg10.dtd">
<svg version="1.0" xmlns="http://www.w3.org/2000/svg"
 width="985.000000pt" height="985.000000pt" viewBox="0 0 985.000000 985.000000"
 preserveAspectRatio="xMidYMid meet">

<g transform="translate(0.000000,985.000000) scale(0.100000,-0.100000)"
fill="#000000" stroke="none">
<path d="M4760 9613 c-333 -64 -590 -306 -674 -636 l-21 -81 -95 -24 c-447
-110 -802 -255 -1169 -476 l-138 -82 -34 23 c-208 146 -494 186 -741 103 -326
-109 -550 -399 -575 -740 -12 -178 48 -400 143 -527 13 -17 24 -35 24 -39 0
-4 -36 -67 -81 -141 -210 -351 -358 -707 -459 -1108 l-38 -150 -70 -16 c-333
-75 -585 -337 -649 -673 -20 -106 -13 -273 17 -375 45 -159 155 -327 282 -430
82 -68 223 -136 335 -164 l90 -22 33 -135 c97 -399 267 -805 490 -1168 l58
-93 -36 -52 c-46 -69 -87 -159 -114 -254 -32 -113 -32 -314 0 -428 175 -611
912 -828 1383 -407 l55 50 75 -45 c109 -67 378 -205 504 -259 196 -83 454
-168 653 -214 l52 -12 0 -49 c0 -27 -5 -49 -10 -49 -6 0 -56 11 -112 25 -398
98 -761 248 -1113 458 -55 33 -103 62 -107 64 -5 2 -8 -4 -8 -15 0 -23 101
-86 320 -200 315 -164 638 -281 1013 -366 16 -4 27 -13 27 -23 0 -40 35 -154
70 -228 82 -174 198 -299 361 -389 98 -53 199 -84 321 -98 95 -11 123 -10 209
5 187 32 346 113 478 245 106 106 196 276 222 417 l12 63 146 35 c143 35 396
116 536 172 176 69 457 212 621 314 l90 57 88 -52 c274 -163 594 -164 868 -2
87 51 217 177 276 268 174 267 175 639 1 906 -21 33 -39 63 -39 66 0 3 38 71
86 149 213 359 366 730 455 1104 18 77 37 143 43 147 5 3 30 9 55 13 77 12
205 64 281 114 186 124 315 306 367 517 26 106 23 298 -6 396 -49 171 -118
285 -245 405 -113 107 -235 172 -391 209 l-74 17 -21 91 c-70 308 -197 654
-343 936 -56 108 -158 288 -193 339 l-23 34 30 44 c157 228 187 553 74 808
-59 133 -178 275 -296 355 -271 185 -624 195 -902 28 -44 -26 -82 -48 -85 -48
-3 0 -44 24 -91 54 -138 87 -167 103 -348 192 -278 136 -509 221 -802 295 -85
21 -158 44 -163 51 -4 7 -8 23 -8 35 0 35 -60 194 -97 258 -111 191 -294 334
-498 391 -59 16 -318 28 -375 17z m200 -173 c0 -5 -20 -10 -44 -10 -30 0 -46
-5 -50 -15 -6 -17 29 -22 39 -5 8 13 62 13 70 0 4 -7 14 -6 28 2 33 18 65 20
105 7 67 -22 122 -51 115 -62 -3 -6 -1 -7 6 -3 22 14 133 -78 198 -163 23 -31
39 -59 37 -62 -2 -4 3 -9 11 -13 8 -3 15 -11 15 -17 0 -8 -4 -8 -15 1 -12 10
-18 9 -32 -5 -16 -17 -16 -17 7 -10 14 4 22 4 18 0 -12 -13 16 -34 30 -23 8 7
12 7 12 0 0 -5 -6 -12 -14 -15 -17 -7 -27 -55 -12 -60 6 -2 8 -7 4 -11 -3 -4
-15 -3 -26 3 -15 8 -23 6 -37 -9 -10 -12 -13 -20 -7 -20 7 0 12 6 12 13 0 8 4
7 10 -3 7 -11 10 -11 10 -2 0 7 5 10 11 6 6 -3 9 -15 6 -25 -4 -14 0 -19 14
-19 10 0 19 -4 19 -10 0 -5 11 -10 25 -10 33 0 32 -16 -2 -23 -34 -6 -56 2
-49 19 7 18 -8 18 -23 0 -9 -11 -9 -15 1 -19 7 -2 10 -8 5 -12 -4 -5 -13 -3
-19 3 -15 15 -28 16 -28 2 0 -5 6 -10 14 -10 8 0 16 -5 18 -11 3 -8 10 -9 23
-2 21 11 45 7 45 -7 0 -16 -61 -20 -77 -5 -15 16 -33 20 -33 8 1 -17 26 -39
39 -35 8 3 11 0 7 -7 -5 -7 -1 -9 8 -5 9 3 16 10 16 15 0 5 4 9 9 9 9 0 24
-38 22 -53 -1 -4 6 -10 15 -14 14 -5 13 -9 -7 -24 -19 -15 -21 -19 -7 -19 9 0
20 5 23 10 3 6 14 10 23 10 15 0 15 -2 2 -10 -12 -7 -13 -13 -3 -28 7 -12 8
-24 2 -33 -5 -8 -9 -11 -9 -7 0 4 -9 0 -20 -9 -13 -11 -16 -21 -10 -28 6 -7 6
-16 2 -20 -4 -5 -1 -5 6 -1 7 4 10 11 7 16 -3 4 3 14 12 21 14 12 15 11 8 -11
-4 -14 -14 -32 -21 -41 -8 -9 -12 -18 -9 -21 10 -9 -17 -68 -31 -68 -8 0 -11
-6 -8 -15 4 -8 1 -15 -6 -15 -6 0 -10 -6 -7 -12 6 -18 -49 -92 -108 -146 -102
-92 -206 -143 -344 -167 -76 -14 -86 -14 -94 0 -4 8 -15 15 -24 15 -13 0 -13
-2 -2 -16 12 -15 10 -16 -29 -10 -23 3 -60 9 -82 12 -40 6 -52 18 -27 27 7 3
5 6 -5 6 -10 1 -18 -3 -18 -9 0 -5 -5 -10 -11 -10 -5 0 -7 5 -3 12 4 6 3 8 -4
5 -5 -4 -17 -4 -25 -1 -22 8 -6 49 19 50 30 2 64 14 64 24 0 5 8 16 17 26 16
16 16 16 -6 9 -16 -5 -26 -3 -32 6 -6 11 -11 11 -20 2 -10 -10 -7 -14 12 -22
21 -8 22 -10 6 -16 -10 -4 -36 -5 -57 -2 -22 3 -40 1 -40 -4 0 -5 -9 -9 -19
-9 -11 0 -22 -4 -26 -9 -3 -6 7 -6 27 0 47 13 56 11 30 -7 -12 -8 -20 -20 -17
-25 4 -5 2 -9 -3 -9 -15 0 -71 30 -78 42 -4 6 -2 8 4 4 6 -3 14 -2 17 4 4 6
-5 10 -23 8 -33 -2 -86 27 -77 43 4 5 3 8 -2 7 -13 -4 -53 22 -53 34 0 6 11 3
25 -6 14 -9 25 -12 25 -7 0 5 -9 13 -20 16 -11 3 -20 14 -21 23 0 14 -2 14 -8
-2 -7 -17 -8 -17 -24 -1 -26 25 -40 55 -27 55 6 0 9 4 5 10 -3 5 -11 7 -18 4
-8 -3 -26 19 -45 56 -18 33 -30 60 -26 60 4 0 2 6 -4 13 -14 17 -44 125 -41
151 0 11 0 24 -1 29 -7 23 -4 34 16 57 16 18 20 30 14 40 -7 11 -11 9 -19 -13
-17 -45 -22 -31 -12 36 0 4 8 7 16 7 8 0 15 7 15 16 0 14 -2 14 -16 3 -14 -12
-16 -11 -13 5 5 23 60 56 66 39 6 -17 33 -16 33 1 0 7 7 19 15 26 28 23 18 45
-27 57 -32 9 -45 9 -50 0 -9 -15 -10 -5 -2 17 3 9 14 16 23 17 9 0 11 3 5 5
-30 12 15 84 52 84 13 0 25 8 29 18 3 11 17 24 31 31 15 6 24 15 20 18 -3 4
-12 1 -18 -5 -7 -7 -20 -12 -30 -12 -11 0 -15 -5 -12 -14 3 -8 -3 -16 -15 -19
-13 -3 -21 0 -21 7 0 17 45 58 54 49 4 -4 4 0 0 10 -5 13 -1 17 17 18 13 1 29
1 34 0 6 -1 2 5 -7 12 -17 13 -17 15 2 32 21 19 28 7 8 -13 -18 -18 23 -16 48
3 13 11 14 13 3 9 -9 -3 -19 1 -21 8 -7 16 18 42 27 28 8 -13 52 -13 60 1 4 6
-3 9 -21 7 -54 -6 -33 20 48 60 85 42 176 72 212 72 21 -1 21 -1 2 -15 -15
-11 -16 -15 -5 -15 8 0 20 5 27 12 7 7 33 15 60 19 26 3 50 7 55 8 4 0 7 -3 7
-9z m-610 -470 c-24 -13 -73 -16 -77 -4 -2 7 14 11 44 12 29 0 42 -3 33 -8z
m-10 -30 c0 -5 -7 -10 -15 -10 -8 0 -15 5 -15 10 0 6 7 10 15 10 8 0 15 -4 15
-10z m-60 -10 c0 -5 -4 -10 -10 -10 -5 0 -10 5 -10 10 0 6 5 10 10 10 6 0 10
-4 10 -10z m1270 0 c0 -5 -5 -10 -11 -10 -5 0 -7 5 -4 10 3 6 8 10 11 10 2 0
4 -4 4 -10z m362 -99 c408 -106 776 -262 1121 -478 l88 -56 -21 -22 c-50 -53
-57 -52 -171 18 -227 140 -523 275 -799 365 -115 38 -314 92 -338 92 -9 0 -23
4 -31 9 -16 10 -27 111 -12 111 6 0 79 -18 163 -39z m-1852 -22 l-5 -51 -130
-33 c-380 -97 -789 -270 -1088 -462 l-70 -45 -35 35 c-19 19 -32 39 -28 45 3
6 59 42 124 80 333 198 697 351 1067 447 177 46 172 47 165 -16z m1480 1 c0
-5 -4 -10 -10 -10 -5 0 -10 5 -10 10 0 6 5 10 10 10 6 0 10 -4 10 -10z m24
-35 c3 -9 0 -15 -9 -15 -9 0 -12 6 -9 15 4 8 7 15 9 15 2 0 5 -7 9 -15z m366
-206 c297 -82 649 -232 901 -384 129 -78 122 -70 99 -115 -11 -21 -25 -42 -30
-45 -6 -4 -48 16 -93 43 -308 189 -674 340 -1035 427 -52 12 -72 21 -68 31 3
7 10 31 16 52 l10 40 63 -14 c34 -8 96 -24 137 -35z m-1837 -6 c15 -54 14 -63
-12 -63 -56 0 -459 -130 -626 -202 -151 -65 -407 -200 -516 -272 l-27 -17 -26
47 c-21 37 -24 50 -14 56 302 194 661 353 1038 458 63 17 120 33 125 35 33 11
44 3 58 -42z m51 -140 c46 -94 96 -164 173 -240 66 -66 71 -73 51 -77 -291
-59 -470 -110 -678 -193 -206 -83 -479 -229 -638 -344 l-57 -40 -6 138 c-6
127 -24 226 -49 273 -19 36 -9 50 78 101 236 141 534 276 772 350 83 26 294
84 320 88 3 1 19 -25 34 -56z m1726 18 c254 -69 491 -162 725 -285 133 -70
272 -152 280 -166 3 -6 -5 -45 -19 -89 -32 -100 -48 -227 -39 -310 5 -53 4
-63 -8 -56 -8 5 -45 30 -84 55 -203 136 -433 260 -623 335 -169 66 -403 135
-563 166 -63 11 -115 22 -117 24 -2 1 27 31 64 66 69 67 151 182 181 255 13
32 24 44 38 44 12 0 86 -18 165 -39z m-3620 -142 c36 -5 85 -17 110 -25 55
-19 175 -87 160 -92 -22 -8 -9 -24 15 -18 21 5 35 -4 90 -59 68 -69 74 -79 50
-89 -8 -3 -15 -10 -15 -16 0 -6 5 -8 10 -5 6 3 10 0 10 -7 0 -7 9 -19 20 -26
17 -10 20 -10 20 2 0 8 -7 19 -16 24 -11 6 -13 11 -5 16 6 4 18 -8 28 -30 15
-30 15 -38 5 -42 -9 -3 -6 -8 9 -16 12 -6 26 -23 30 -38 7 -26 5 -28 -21 -28
-15 0 -30 -6 -33 -14 -4 -9 0 -13 11 -11 9 2 17 4 17 5 0 1 10 3 23 6 17 3 22
-1 22 -15 0 -11 -4 -22 -10 -26 -5 -3 -1 -14 10 -25 22 -22 28 -90 8 -90 -6 0
-4 -6 5 -12 14 -11 16 -22 11 -60 -4 -27 -10 -48 -13 -48 -4 0 -5 -15 -3 -33
5 -44 -31 -148 -80 -230 -42 -69 -142 -172 -159 -161 -5 3 -8 0 -7 -6 4 -17
-125 -88 -209 -115 -113 -37 -274 -36 -400 3 -51 15 -68 34 -39 45 8 3 23 3
34 0 11 -2 23 1 27 8 5 7 4 10 -2 6 -6 -4 -22 2 -36 13 -29 23 -43 25 -53 8
-5 -8 -2 -9 9 -5 10 3 17 2 17 -3 0 -5 -10 -12 -21 -15 -17 -6 -19 -9 -8 -17
11 -8 10 -8 -4 -4 -10 3 -23 6 -27 6 -5 0 -15 12 -22 28 -8 17 -22 27 -36 28
-34 2 -53 24 -21 25 l24 1 -25 7 c-14 4 -27 4 -31 -1 -3 -4 -22 10 -43 31 -30
31 -36 43 -28 56 7 13 11 14 17 5 4 -7 3 -15 -3 -19 -6 -4 2 -12 19 -20 16 -7
27 -17 23 -22 -11 -18 16 -8 41 15 24 23 28 23 56 9 16 -8 35 -13 42 -10 6 2
-3 7 -20 11 -18 4 -33 12 -33 17 0 6 -9 7 -21 4 -15 -5 -19 -4 -15 4 5 7 46
11 112 11 97 0 104 -1 89 -16 -9 -9 -13 -19 -9 -23 4 -3 9 0 11 7 3 6 12 12
21 12 32 0 47 40 47 125 0 68 9 113 64 305 36 124 66 227 68 229 7 10 17 -20
84 -254 48 -169 69 -257 64 -274 -14 -55 -17 -89 -7 -94 5 -4 50 -9 101 -12
111 -6 136 3 127 46 -3 19 -2 28 4 24 15 -9 11 8 -7 30 l-16 20 7 -20 6 -20
-16 20 c-8 11 -13 30 -11 42 2 12 1 20 -3 18 -10 -6 -28 44 -98 265 -17 52
-56 174 -86 271 l-56 176 -98 7 c-54 4 -106 4 -115 0 -11 -4 -25 -34 -37 -78
-11 -39 -39 -130 -62 -202 -33 -103 -45 -131 -58 -127 -13 4 -13 3 -1 -5 13
-9 11 -21 -12 -79 -14 -37 -33 -92 -43 -120 -9 -29 -21 -53 -26 -53 -5 0 -6
-4 -3 -10 11 -18 -13 -81 -41 -106 -22 -22 -26 -31 -21 -65 4 -29 2 -39 -9
-39 -8 0 -14 9 -14 20 0 18 -3 19 -21 9 -17 -9 -24 -8 -36 4 -13 12 -13 15 2
21 9 3 13 2 10 -4 -3 -6 -2 -10 2 -10 14 0 50 29 38 30 -5 1 -27 4 -48 6 -25
3 -36 1 -32 -6 11 -18 -21 -11 -40 10 -17 19 -17 19 21 16 22 -2 44 0 51 6 7
6 14 5 18 -2 3 -5 11 -10 16 -10 6 0 4 6 -4 14 -8 9 -24 12 -36 9 -12 -3 -21
-1 -21 6 0 6 11 13 25 17 27 7 25 24 -3 24 -9 0 -28 9 -41 19 -25 19 -51 18
-51 -1 0 -6 7 -8 15 -4 19 7 19 6 -2 -35 -14 -27 -18 -30 -21 -15 -2 10 1 22
8 26 9 6 9 9 0 15 -7 4 -16 1 -21 -6 -5 -8 -9 -9 -9 -4 0 6 -3 20 -6 33 -5 17
-3 21 9 16 9 -3 24 -1 34 5 17 10 17 10 1 11 -10 0 -18 5 -18 10 0 6 6 10 14
10 7 0 20 7 27 16 12 15 11 16 -11 9 -14 -4 -35 -13 -47 -21 -12 -8 -24 -10
-27 -5 -5 8 77 46 99 46 11 0 55 46 55 58 0 12 -8 8 -36 -18 -21 -19 -30 -22
-41 -14 -8 7 -29 9 -53 5 -25 -4 -40 -2 -40 4 0 5 7 10 15 10 8 0 20 9 27 19
11 18 13 18 24 3 10 -14 14 -15 29 -2 16 14 17 13 10 -9 -5 -17 -4 -22 6 -19
23 8 22 36 -1 43 -11 3 -18 10 -15 15 7 12 -17 19 -48 13 -18 -4 -27 -1 -27 7
0 7 8 10 18 8 12 -4 18 1 18 13 0 11 -6 19 -12 19 -6 0 -14 9 -17 20 -3 13 0
20 10 20 8 0 12 -4 9 -9 -3 -5 3 -11 14 -14 13 -3 18 -10 14 -21 -4 -11 -1
-16 10 -16 9 0 16 -4 16 -10 0 -5 6 -10 14 -10 12 0 12 4 0 30 -9 17 -21 30
-27 30 -7 0 -6 4 3 10 12 8 11 10 -7 10 -16 0 -21 4 -17 15 4 9 0 15 -9 15 -8
0 -17 -5 -19 -12 -5 -14 -38 -3 -38 13 0 6 7 8 18 4 14 -5 15 -4 5 6 -14 14
-18 49 -5 49 4 0 7 14 8 30 1 17 11 41 23 53 22 24 29 43 11 32 -6 -4 2 14 17
39 15 24 31 44 36 43 5 -1 12 4 15 12 3 8 0 11 -7 7 -24 -15 -9 8 42 61 119
127 243 190 427 217 50 7 96 6 160 -5z m5545 -4 c185 -39 369 -183 454 -355
55 -113 75 -208 67 -330 -10 -177 -65 -300 -191 -426 -89 -90 -152 -129 -270
-170 -68 -23 -97 -28 -190 -28 -183 -2 -331 54 -457 173 -67 62 -158 192 -158
224 0 9 -4 18 -9 21 -17 11 -56 229 -44 248 2 4 6 38 8 75 8 170 126 365 284
470 59 39 179 90 245 103 67 13 186 11 261 -5z m-2060 -270 c331 -88 584 -200
915 -408 104 -65 180 -123 180 -138 0 -5 -54 -9 -125 -9 -124 0 -125 0 -177
34 -277 176 -605 313 -933 390 -67 16 -74 20 -153 99 -70 69 -80 84 -67 93 19
14 174 -12 360 -61z m-1291 57 c3 -5 -32 -46 -78 -91 l-83 -83 -112 -28 c-304
-78 -623 -211 -860 -359 l-81 -51 -125 0 c-97 0 -125 3 -125 13 0 11 142 110
273 191 277 171 650 314 1017 391 124 26 166 30 174 17z m69 -43 c23 -12 44
-23 46 -25 2 -1 -119 -123 -268 -271 -291 -287 -288 -284 -379 -274 -32 3 -28
8 260 297 161 161 294 293 296 293 1 1 22 -9 45 -20z m1698 -851 l864 -871 3
-71 2 -71 -892 896 c-491 492 -904 907 -917 922 l-23 25 38 21 c22 11 44 20
50 21 5 0 399 -392 875 -872z m-1408 762 c9 0 17 -4 17 -9 0 -6 -104 -114
-232 -240 l-232 -231 -63 0 c-35 0 -63 3 -63 6 0 3 109 113 243 245 238 236
243 240 277 235 19 -3 43 -6 53 -6z m569 -267 c150 -150 596 -596 991 -991
l718 -718 -3 -65 -3 -64 -1047 1045 c-577 575 -1048 1049 -1048 1052 0 8 53
16 92 14 22 -1 82 -55 300 -273z m-346 173 c46 -47 84 -87 84 -89 0 -2 -17 0
-38 6 -33 9 -46 7 -83 -11 -60 -28 -119 -31 -155 -7 -20 14 -45 20 -82 19
l-53 0 83 83 c75 76 86 83 122 83 36 0 46 -7 122 -84z m664 -6 c188 -48 419
-136 590 -227 125 -66 239 -134 246 -145 3 -4 -122 -8 -278 -8 l-283 0 -197
197 c-109 109 -198 202 -198 206 0 5 8 6 18 3 9 -3 55 -15 102 -26z m-1646
-180 l-200 -200 -285 2 -284 3 88 53 c168 100 364 189 562 256 128 44 271 84
300 85 14 1 -45 -64 -181 -199z m782 74 c49 -33 71 -117 40 -160 -20 -27 -30
-11 -27 41 2 55 -9 79 -49 95 -35 15 -84 0 -100 -31 -29 -53 7 -129 61 -129
29 0 48 -27 24 -36 -22 -9 -79 14 -104 40 -28 30 -37 87 -21 127 26 61 120 89
176 53z m300 -18 c28 -28 34 -42 34 -75 0 -23 -7 -56 -16 -72 -23 -46 -124
-81 -124 -44 0 16 6 19 50 29 27 6 60 52 60 84 0 30 -40 71 -76 78 -24 5 -37
0 -63 -22 -31 -26 -33 -31 -28 -74 8 -65 -7 -86 -28 -37 -34 83 22 167 111
167 39 0 51 -5 80 -34z m-203 -2 c9 -9 -4 -34 -18 -34 -16 0 -37 25 -28 33 8
9 38 9 46 1z m-292 -52 c-13 -43 2 -92 38 -126 22 -21 44 -30 88 -35 32 -5 72
-15 88 -24 29 -16 18 -17 -210 -17 l-240 0 120 120 c65 65 120 118 122 116 1
-1 -1 -17 -6 -34z m162 32 c3 -4 1 -16 -5 -28 -7 -11 -14 -39 -18 -61 -4 -33
-9 -39 -25 -37 -50 8 -71 76 -35 112 19 19 69 27 83 14z m299 -11 c28 -25 24
-77 -8 -102 -35 -27 -44 -26 -44 4 0 14 -7 42 -15 62 -8 19 -15 39 -15 44 0
16 63 10 82 -8z m196 -103 l119 -120 -236 0 -236 0 33 20 c19 12 50 20 75 20
89 0 159 93 129 172 -5 15 -8 28 -6 28 2 0 57 -54 122 -120z m-3768 80 c0 -5
-7 -10 -16 -10 -8 0 -12 5 -9 10 3 6 10 10 16 10 5 0 9 -4 9 -10z m3302 -35
c-5 -58 5 -83 39 -100 69 -36 135 19 123 103 -4 27 -2 42 5 42 17 0 31 -36 31
-80 0 -34 -6 -48 -34 -76 -28 -28 -42 -34 -75 -34 -98 0 -157 82 -119 165 16
36 34 25 30 -20z m106 -62 c17 -31 16 -33 -21 -33 -43 0 -49 7 -32 34 8 12 15
37 16 56 4 55 13 60 19 10 3 -25 11 -55 18 -67z m-3368 -44 c12 -8 10 -9 -7
-4 -12 3 -24 1 -28 -5 -3 -6 -11 -7 -18 -3 -7 4 -4 9 9 14 26 10 27 10 44 -2z
m4902 -89 l376 0 16 -47 c9 -26 16 -48 16 -50 0 -2 -175 -3 -388 -3 l-388 0
-47 48 c-26 27 -44 52 -40 56 5 4 24 5 43 2 19 -3 204 -6 412 -6z m-974 -43
c23 -23 42 -46 42 -50 0 -4 -583 -7 -1295 -7 -712 0 -1295 1 -1295 3 0 2 7 24
16 50 l16 47 1237 0 1237 0 42 -43z m-3853 -17 c-3 -5 -11 -10 -16 -10 -6 0
-7 5 -4 10 3 6 11 10 16 10 6 0 7 -4 4 -10z m-5 -111 c0 -14 -17 -10 -23 5 -4
10 -1 13 9 9 7 -3 14 -9 14 -14z m120 -59 c0 -5 -4 -12 -10 -15 -5 -3 -10 -1
-10 4 0 6 -8 11 -17 11 -15 0 -15 2 -4 9 15 10 41 4 41 -9z m3980 -55 l44 -45
-69 -1 c-445 -4 -2895 -3 -2895 2 0 3 14 24 31 47 l31 42 1407 0 1407 0 44
-45z m1245 2 c17 -23 32 -45 33 -49 2 -5 -149 -8 -335 -8 l-339 0 -49 50 -49
50 354 0 355 -1 30 -42z m-5405 -130 c0 -4 -20 -41 -44 -81 -205 -337 -351
-682 -446 -1050 l-39 -151 -50 -3 c-30 -2 -51 1 -51 7 0 22 80 322 113 421 82
250 224 560 364 795 90 150 80 142 120 103 18 -17 33 -36 33 -41z m6814 -48
c146 -242 302 -587 389 -866 39 -123 102 -371 96 -377 -2 -2 -27 -2 -55 1
l-51 5 -18 77 c-34 145 -107 377 -168 531 -67 172 -215 469 -296 599 l-53 83
33 34 c18 19 38 33 43 31 6 -2 42 -55 80 -118z m-5391 81 c-32 -19 -63 -66
-63 -95 0 -22 -65 -85 -88 -85 -26 0 -84 -41 -98 -68 -21 -43 -24 -34 -24 86
0 115 1 122 26 151 l26 31 126 0 127 0 -32 -20z m287 -145 c-90 -90 -165 -163
-167 -162 -6 7 19 77 27 77 5 0 21 17 35 37 43 64 29 135 -37 187 l-33 26 170
0 170 0 -165 -165z m-575 -755 l-919 -919 -23 41 c-13 22 -23 43 -23 46 0 4
393 400 872 879 l873 873 70 0 70 0 -920 -920z m208 -132 c-579 -579 -1055
-1050 -1058 -1047 -3 3 -9 28 -15 55 l-9 49 997 997 997 997 70 1 70 0 -1052
-1052z m3528 412 l640 -641 0 -907 -1 -907 -243 -238 c-133 -132 -420 -416
-637 -633 l-396 -394 -899 0 -900 0 -638 638 -637 637 -5 900 -4 900 642 643
642 642 898 0 898 0 640 -640z m214 597 c-41 -40 -45 -48 -45 -92 0 -50 27
-108 55 -119 8 -3 15 -13 15 -23 0 -10 7 -30 14 -45 8 -16 14 -28 13 -28 -1 0
-81 79 -177 175 l-175 175 173 0 172 0 -45 -43z m402 21 c22 -20 23 -28 23
-152 l0 -131 -19 30 c-21 35 -53 59 -93 69 -39 9 -80 53 -103 111 -15 37 -30
55 -60 72 l-40 23 134 0 c125 0 136 -2 158 -22z m-3937 -13 c61 -31 79 -122
36 -172 -31 -36 -44 -23 -23 22 24 50 21 72 -13 107 -27 26 -36 30 -68 25 -46
-8 -72 -38 -72 -84 0 -33 35 -83 60 -83 5 0 10 -7 10 -15 0 -19 -13 -19 -48
-1 -47 25 -70 88 -49 139 29 69 101 96 167 62z m3676 -1 c62 -29 83 -109 45
-170 -17 -28 -75 -63 -87 -52 -9 10 8 37 28 44 31 9 52 70 37 106 -34 82 -159
57 -159 -33 0 -20 7 -42 15 -49 18 -15 20 -53 3 -48 -7 3 -24 20 -36 39 -29
42 -25 99 10 136 42 45 88 54 144 27z m-3686 -54 c22 -22 27 -69 8 -88 -8 -8
-19 -4 -45 18 -19 17 -43 30 -53 30 -27 0 -25 25 2 44 31 22 64 20 88 -4z
m3674 -1 c33 -26 33 -35 -1 -44 -16 -3 -41 -18 -56 -33 -28 -26 -29 -27 -43
-8 -19 27 -18 49 7 80 25 31 57 33 93 5z m-4084 -322 l0 -333 -50 -49 -50 -49
0 350 0 350 43 31 c23 17 45 32 50 32 4 1 7 -149 7 -332z m4458 302 l42 -31 0
-241 c1 -133 3 -767 6 -1409 l6 -1167 -45 -48 c-25 -26 -48 -46 -50 -43 -7 7
-13 2970 -6 2970 3 0 24 -14 47 -31z m1032 -151 c136 -235 241 -468 327 -728
46 -139 106 -361 99 -368 -10 -9 -96 -30 -100 -24 -2 4 -20 68 -39 142 -86
324 -224 657 -387 930 -33 56 -61 105 -63 111 -2 8 67 56 85 58 4 1 39 -54 78
-121z m-6450 92 c22 -11 40 -24 40 -28 0 -4 -28 -52 -61 -107 -66 -110 -201
-380 -244 -489 -70 -180 -117 -329 -175 -552 l-10 -42 -47 14 c-25 8 -48 16
-50 18 -13 13 102 396 173 577 78 200 301 629 327 629 4 0 26 -9 47 -20z
m1323 0 c36 -28 52 -81 37 -124 -33 -102 -172 -115 -217 -21 -24 51 -8 54 35
7 40 -44 66 -51 105 -30 34 17 46 39 47 80 0 31 -6 42 -35 65 -19 15 -35 31
-35 36 0 14 38 7 63 -13z m3747 13 c0 -3 -18 -23 -40 -43 -48 -44 -51 -75 -14
-119 20 -24 34 -31 60 -31 33 0 49 11 92 64 19 24 33 10 21 -22 -16 -41 -38
-61 -80 -72 -77 -21 -149 36 -149 117 0 38 5 50 34 79 30 30 76 46 76 27z
m-3888 -45 c-6 -6 -15 -7 -22 -3 -8 5 -6 13 7 27 16 18 18 19 21 3 2 -9 -1
-22 -6 -27z m3984 15 c11 -12 13 -18 5 -21 -19 -6 -41 6 -41 23 0 20 14 19 36
-2z m-4981 -54 c47 -14 114 -22 206 -26 l136 -5 -72 -108 c-248 -372 -423
-813 -499 -1262 l-7 -38 -61 65 c-74 80 -158 144 -244 186 -47 23 -63 36 -60
48 3 9 21 78 41 153 88 340 232 674 418 971 25 40 34 47 51 42 12 -3 53 -15
91 -26z m1101 -25 c30 -8 31 -28 2 -49 -22 -15 -24 -14 -39 22 -9 21 -24 44
-33 52 -9 7 -16 18 -16 23 0 5 14 -2 31 -16 17 -14 41 -29 55 -32z m5035 -51
c191 -327 328 -669 417 -1040 l9 -41 -64 -32 c-85 -42 -211 -138 -264 -201
l-43 -52 -22 120 c-49 267 -143 546 -279 831 -73 151 -111 217 -207 354 -37
54 -68 99 -68 101 0 3 64 7 143 10 115 4 156 10 217 30 41 14 80 25 87 26 6 1
39 -47 74 -106z m-5601 -286 l0 -383 -50 -49 -50 -49 2 418 3 419 35 13 c19 7
41 13 48 13 9 1 12 -82 12 -382z m470 363 c28 -20 58 -76 46 -87 -3 -3 -23 12
-44 35 -30 33 -46 42 -71 42 -74 0 -112 -104 -55 -149 31 -25 72 -27 100 -6
21 16 54 20 54 6 0 -24 -54 -51 -100 -51 -59 0 -105 37 -115 92 -9 45 17 103
54 123 38 21 98 18 131 -5z m3918 -7 c-15 -16 -30 -40 -33 -55 -8 -32 -21 -35
-47 -11 -25 23 -23 30 16 43 18 6 42 20 51 30 10 11 23 20 28 20 6 0 -1 -12
-15 -27z m152 12 c80 -41 78 -169 -2 -211 -40 -21 -102 -13 -134 17 -21 20
-22 24 -9 32 11 6 22 4 33 -6 29 -24 52 -27 87 -13 54 23 70 73 39 121 -34 52
-110 48 -147 -9 -24 -37 -50 -36 -36 1 28 74 101 103 169 68z m416 -6 c14 -5
23 -19 27 -41 2 -18 5 -575 6 -1237 l2 -1204 -47 -44 c-26 -24 -48 -42 -50
-40 -2 2 -7 2498 -4 2575 0 13 12 12 66 -9z m-5136 -340 c-161 -265 -313 -640
-369 -911 -11 -49 -19 -62 -101 -143 -49 -49 -93 -86 -96 -82 -12 12 36 251
81 412 75 262 179 512 305 731 72 126 172 276 203 307 l22 22 3 -126 3 -127
-51 -83z m5248 284 c208 -267 400 -675 503 -1072 39 -153 71 -330 61 -347 -6
-10 -31 9 -94 74 l-87 87 -26 105 c-81 321 -208 630 -359 875 l-56 90 0 113
c0 128 8 138 58 75z m-4669 -5 c6 -18 21 -42 32 -54 26 -28 17 -44 -24 -44
-38 0 -50 7 -66 37 -15 30 -14 36 10 67 27 34 35 33 48 -6z m4147 -15 c16 -62
-36 -110 -92 -84 l-27 12 21 22 c12 12 28 39 37 60 13 33 18 36 35 27 11 -6
23 -22 26 -37z m-4206 -138 c53 -27 120 -16 159 27 12 12 40 28 63 35 40 11
34 4 -122 -152 -91 -91 -168 -165 -172 -165 -3 0 -7 75 -7 168 l-1 167 26 -33
c14 -18 39 -39 54 -47z m3997 55 c11 0 32 -13 48 -30 70 -73 172 -57 223 35 9
15 11 -21 12 -152 0 -95 -1 -173 -3 -173 -1 0 -79 77 -172 171 -94 94 -160
166 -148 160 12 -6 30 -11 40 -11z m-4664 -912 c-108 -108 -199 -196 -201
-194 -7 8 60 241 105 366 52 144 148 350 231 495 l57 100 3 -285 2 -284 -197
-198z m5507 487 c76 -154 153 -363 206 -554 19 -69 34 -129 34 -135 0 -6 -92
81 -204 193 l-204 204 4 251 c2 138 4 267 4 286 1 35 1 35 46 -35 24 -38 76
-133 114 -210z m137 -637 l292 -291 -21 -41 c-11 -23 -22 -43 -25 -46 -2 -2
-127 119 -278 270 l-275 275 0 62 c0 35 3 63 7 63 5 0 139 -131 300 -292z
m-5077 -1343 c0 -817 -3 -1485 -6 -1485 -3 0 -26 16 -50 36 l-44 36 0 1406 0
1406 42 43 c23 24 46 43 50 43 4 0 8 -668 8 -1485z m5032 1048 l247 -248 -12
-58 -12 -58 -242 244 -243 243 0 62 c0 34 3 62 8 62 4 0 118 -111 254 -247z
m1193 222 c94 -21 126 -33 188 -68 126 -70 218 -168 282 -302 55 -116 69 -188
62 -318 -9 -175 -66 -296 -197 -427 -138 -137 -276 -194 -466 -193 -191 1
-327 57 -459 188 -136 134 -198 282 -198 470 0 112 18 198 62 290 126 266 447
425 726 360z m-7855 -5 c0 -5 -7 -10 -16 -10 -8 0 -12 5 -9 10 3 6 10 10 16
10 5 0 9 -4 9 -10z m110 -4 c0 -11 -19 -15 -25 -6 -3 5 1 10 9 10 9 0 16 -2
16 -4z m1280 -1300 c0 -711 -3 -1296 -6 -1299 -3 -3 -25 2 -50 10 l-44 15 0
1236 0 1236 47 48 c26 26 49 48 50 48 2 0 3 -582 3 -1294z m-1264 1248 c-3 -8
-2 -13 2 -10 4 2 14 1 21 -3 9 -6 3 -9 -15 -9 -38 0 -46 6 -31 23 16 19 31 19
23 -1z m-59 -30 c-3 -3 -12 -4 -19 -1 -8 3 -5 6 6 6 11 1 17 -2 13 -5z m120
-26 c-3 -8 -6 -5 -6 6 -1 11 2 17 5 13 3 -3 4 -12 1 -19z m-60 6 c-3 -3 -12
-4 -19 -1 -8 3 -5 6 6 6 11 1 17 -2 13 -5z m-57 -26 c0 -13 -23 -5 -28 10 -2
7 2 10 12 6 9 -3 16 -11 16 -16z m1190 -234 l0 -227 -21 27 c-15 19 -20 35
-16 55 9 43 -30 111 -76 134 -33 17 -46 18 -84 10 l-45 -11 118 119 c65 65
120 119 121 119 2 0 3 -102 3 -226z m5264 111 c106 -105 135 -138 105 -119
-20 12 -87 6 -119 -11 -39 -20 -74 -93 -65 -134 4 -19 1 -32 -10 -41 -8 -7
-15 -19 -15 -26 0 -8 -4 -14 -10 -14 -6 0 -10 83 -10 230 0 127 2 230 4 230 2
0 56 -52 120 -115z m-6459 45 c-3 -5 -11 -10 -16 -10 -6 0 -7 5 -4 10 3 6 11
10 16 10 6 0 7 -4 4 -10z m80 0 c-3 -5 -13 -10 -21 -10 -8 0 -14 5 -14 10 0 6
9 10 21 10 11 0 17 -4 14 -10z m175 -4 c0 -2 -7 -7 -16 -10 -8 -3 -12 -2 -9 4
6 10 25 14 25 6z m65 -16 c3 -5 1 -10 -4 -10 -6 0 -11 5 -11 10 0 6 2 10 4 10
3 0 8 -4 11 -10z m-260 -20 c3 -6 -1 -7 -9 -4 -18 7 -21 14 -7 14 6 0 13 -4
16 -10z m210 -40 c3 -5 1 -10 -4 -10 -6 0 -11 5 -11 10 0 6 2 10 4 10 3 0 8
-4 11 -10z m-258 -72 c-1 -13 3 -34 7 -47 6 -18 5 -22 -4 -16 -9 5 -11 4 -6
-3 9 -14 -3 -84 -13 -77 -4 2 -6 18 -3 35 4 27 0 32 -32 45 -33 14 -51 45 -26
45 6 0 10 -4 10 -9 0 -5 11 -16 25 -25 22 -15 25 -15 25 -1 0 9 -9 19 -21 23
-20 8 -20 8 5 20 14 6 26 16 26 22 0 5 2 10 4 10 2 0 3 -10 3 -22z m-97 -28
c0 -5 -10 -10 -22 -9 -22 0 -22 1 -3 9 11 5 21 9 23 9 1 1 2 -3 2 -9z m1174
-11 c49 -38 77 -125 39 -117 -10 2 -18 8 -18 13 -3 79 -90 120 -147 68 -42
-38 -25 -122 29 -140 15 -6 45 -8 66 -5 46 5 49 -12 5 -27 -74 -26 -146 22
-155 103 -5 43 -3 48 35 86 33 33 46 40 79 40 26 0 50 -8 67 -21z m5508 -17
c56 -56 45 -146 -22 -186 -34 -19 -86 -20 -120 -1 -22 12 -23 14 -7 20 9 4 28
4 42 1 14 -4 40 0 60 8 80 34 53 156 -35 156 -39 0 -82 -34 -85 -68 -1 -23
-14 -42 -27 -42 -19 0 -1 80 24 107 31 34 56 43 102 39 26 -3 49 -14 68 -34z
m-6737 8 c13 -6 15 -9 5 -9 -8 0 -22 4 -30 9 -18 12 -2 12 25 0z m475 -5 c0
-8 -4 -15 -9 -15 -5 0 -11 7 -15 15 -3 9 0 15 9 15 8 0 15 -7 15 -15z m-58
-55 c1 -22 2 -49 2 -60 1 -11 -3 -20 -9 -20 -5 0 -10 10 -10 21 0 14 -9 25
-25 32 -23 9 -23 10 -5 15 29 6 36 24 17 39 -15 11 -15 12 6 13 19 0 22 -6 24
-40z m98 30 c0 -5 -2 -10 -4 -10 -3 0 -8 5 -11 10 -3 6 -1 10 4 10 6 0 11 -4
11 -10z m520 -16 c-15 -38 -12 -65 10 -107 26 -48 25 -110 -2 -165 -18 -39
-20 -51 -11 -85 11 -39 11 -39 -83 54 -69 68 -94 100 -94 119 0 18 25 50 92
117 51 51 94 93 95 93 1 0 -2 -12 -7 -26z m176 1 c33 -33 27 -47 -20 -51 -21
-2 -49 -10 -61 -18 -21 -14 -24 -14 -29 0 -12 31 -6 53 20 73 35 28 59 26 90
-4z m5489 0 c25 -24 30 -41 19 -69 -5 -14 -9 -14 -34 -1 -16 8 -45 15 -65 15
-43 0 -46 19 -10 55 31 32 59 32 90 0z m-6325 -8 c0 -6 -3 -7 -7 -4 -3 4 -12
2 -20 -4 -11 -10 -11 -13 2 -23 10 -7 12 -16 5 -26 -14 -22 -33 35 -20 60 10
20 40 17 40 -3z m6501 -66 c69 -68 89 -95 89 -116 0 -21 -22 -49 -95 -124 -81
-81 -95 -91 -88 -66 11 45 7 90 -13 120 -21 32 -22 100 -2 140 23 46 29 81 18
109 -5 14 -7 26 -4 26 3 0 46 -40 95 -89z m-6411 69 c-20 -13 -33 -13 -25 0 3
6 14 10 23 10 15 0 15 -2 2 -10z m-375 -10 c3 -5 1 -10 -4 -10 -6 0 -11 5 -11
10 0 6 2 10 4 10 3 0 8 -4 11 -10z m415 0 c0 -5 -2 -10 -4 -10 -3 0 -8 5 -11
10 -3 6 -1 10 4 10 6 0 11 -4 11 -10z m-1070 -4 c0 -2 -7 -6 -15 -10 -8 -3
-15 -1 -15 4 0 6 7 10 15 10 8 0 15 -2 15 -4z m660 -41 c0 -8 7 -15 15 -15 9
0 15 -9 15 -22 0 -20 -1 -20 -18 -5 -10 10 -23 17 -28 17 -5 0 -10 9 -10 20 0
11 6 20 13 20 7 0 13 -7 13 -15z m219 -29 c-9 -8 -10 -7 -5 7 3 10 7 24 7 30
1 7 3 4 6 -7 3 -10 -1 -23 -8 -30z m937 8 c42 -20 64 -59 64 -111 0 -83 -87
-137 -165 -101 -40 18 -29 27 31 25 50 -2 58 1 80 26 48 56 14 139 -56 139
-19 0 -39 -1 -45 -2 -40 -9 -41 14 -1 30 32 13 55 12 92 -6z m5431 -6 c23 -18
3 -27 -46 -21 -44 5 -52 3 -75 -20 -63 -64 -8 -158 84 -142 46 8 64 -10 25
-25 -73 -28 -144 7 -166 80 -15 51 11 107 61 133 36 18 92 16 117 -5z m-7167
3 c0 -5 -7 -12 -16 -15 -14 -5 -15 -4 -4 9 14 17 20 19 20 6z m-70 -11 c0 -13
-11 -13 -30 0 -12 8 -11 10 8 10 12 0 22 -4 22 -10z m937 4 c-3 -3 -12 -4 -19
-1 -8 3 -5 6 6 6 11 1 17 -2 13 -5z m-417 -8 c0 -2 -6 -9 -13 -15 -10 -8 -14
-7 -14 4 0 8 6 15 14 15 7 0 13 -2 13 -4z m380 -26 c26 -26 25 -30 -5 -30 -14
0 -25 4 -25 9 0 5 -3 16 -6 25 -9 22 12 20 36 -4z m75 2 c-11 -11 -45 -8 -45
3 0 8 10 10 25 7 14 -2 23 -7 20 -10z m-315 -11 c0 -12 -20 -25 -27 -18 -7 7
6 27 18 27 5 0 9 -4 9 -9z m-611 -17 c10 -9 -35 -3 -49 6 -11 8 -7 9 15 4 17
-4 32 -8 34 -10z m1771 -32 c0 -38 -8 -44 -34 -27 -11 8 -37 15 -58 15 -21 0
-38 4 -38 10 0 5 6 7 13 4 7 -2 31 2 53 9 58 21 64 20 64 -11z m5333 16 c12
-6 38 -15 57 -19 l35 -7 -33 -1 c-18 0 -47 -8 -63 -17 -33 -17 -36 -16 -39 6
-7 50 4 59 43 38z m-5483 -17 c0 -10 -7 -21 -15 -25 -11 -4 -15 1 -15 19 0 16
6 25 15 25 8 0 15 -9 15 -19z m5620 -6 c0 -26 -14 -33 -25 -15 -9 14 1 40 15
40 5 0 10 -11 10 -25z m-6340 5 c0 -5 -4 -10 -10 -10 -5 0 -10 5 -10 10 0 6 5
10 10 10 6 0 10 -4 10 -10z m-49 -18 c11 -13 13 -25 8 -41 -10 -26 10 -38 38
-22 15 9 16 10 2 11 -21 0 -13 50 7 50 8 0 17 0 21 1 4 0 9 -4 11 -10 2 -6 -6
-11 -17 -11 -12 0 -21 -4 -21 -10 0 -5 10 -9 21 -7 16 1 22 -4 24 -21 1 -13
-3 -25 -8 -29 -5 -3 -4 -9 3 -13 9 -6 9 -13 1 -28 -8 -15 -8 -22 2 -26 9 -3 7
-9 -5 -19 -18 -14 -26 -53 -9 -42 5 3 12 1 16 -5 9 -15 -31 -12 -43 3 -13 16
-4 57 12 57 6 0 4 5 -4 11 -11 8 -12 12 -2 16 17 7 15 23 -4 23 -10 0 -14 6
-11 14 4 10 -6 16 -34 20 -39 6 -39 7 -39 51 0 49 7 55 31 27z m-901 1 c0 -5
-5 -15 -10 -23 -7 -12 -9 -10 -7 8 1 19 17 33 17 15z m30 -3 c0 -5 -2 -10 -4
-10 -3 0 -8 5 -11 10 -3 6 -1 10 4 10 6 0 11 -4 11 -10z m555 0 c3 -5 -1 -10
-9 -10 -9 0 -16 5 -16 10 0 6 4 10 9 10 6 0 13 -4 16 -10z m275 -32 c0 -36 -4
-35 -14 5 -4 16 -2 27 4 27 5 0 10 -14 10 -32z m893 21 c55 -15 42 -35 -20
-31 -46 3 -52 1 -77 -29 -34 -40 -30 -82 11 -118 21 -18 34 -22 61 -18 45 8
60 21 74 68 15 53 43 54 35 2 -9 -53 -64 -103 -112 -103 -79 0 -132 58 -122
132 6 45 29 75 72 94 37 16 32 16 78 3z m5322 -110 c3 -102 96 -164 192 -128
19 7 -10 -28 -97 -115 -68 -69 -126 -123 -128 -121 -2 2 -6 111 -9 242 l-5
238 23 -35 c14 -22 23 -52 24 -81z m189 101 c32 -12 66 -65 66 -103 0 -36 -23
-81 -52 -101 -12 -9 -43 -16 -68 -16 -25 0 -56 7 -68 16 -28 19 -52 65 -52 99
0 36 21 27 35 -14 22 -67 87 -91 139 -50 36 29 37 89 0 126 -23 22 -31 25 -73
19 -53 -7 -69 0 -43 20 20 16 80 18 116 4z m-5376 -345 l-3 -115 -120 121
c-66 67 -110 116 -98 110 56 -29 143 4 172 64 8 16 14 48 13 72 0 25 6 47 14
54 8 6 15 19 16 28 4 31 9 -221 6 -334z m-1255 303 c-4 -19 -12 -28 -24 -28
-19 0 -19 1 2 30 26 35 29 35 22 -2z m-536 16 c-3 -3 -12 -4 -19 -1 -8 3 -5 6
6 6 11 1 17 -2 13 -5z m746 -28 c18 6 28 -18 16 -37 -7 -11 -9 -11 -9 4 0 21
-14 22 -35 1 -22 -23 -26 -14 -13 30 10 33 13 35 20 17 4 -12 13 -18 21 -15z
m1047 -513 c0 -35 -3 -63 -8 -63 -4 0 -114 107 -245 238 -251 252 -244 242
-230 325 l6 39 238 -238 239 -239 0 -62z m-1335 517 c-3 -5 -10 -10 -16 -10
-5 0 -9 5 -9 10 0 6 7 10 16 10 8 0 12 -4 9 -10z m6969 -21 c16 -83 76 -17
-991 -1078 l-997 -991 -58 0 c-32 0 -58 3 -58 6 0 8 2083 2094 2091 2094 4 0
9 -14 13 -31z m-6494 11 c0 -5 -2 -10 -4 -10 -3 0 -8 5 -11 10 -3 6 -1 10 4
10 6 0 11 -4 11 -10z m-110 -21 c0 -11 -27 -12 -34 -1 -2 4 4 9 15 9 10 1 19
-2 19 -8z m783 -4 c20 -8 48 -15 62 -15 30 0 31 -9 4 -44 -25 -32 -70 -35 -99
-6 -19 19 -27 60 -13 73 8 9 5 9 46 -8z m5575 -18 c7 -57 -75 -90 -118 -47
-30 30 -26 50 13 50 17 1 43 7 57 15 33 19 44 14 48 -18z m-6671 14 c9 8 13 8
13 0 0 -6 -7 -14 -15 -17 -21 -8 -48 3 -40 17 5 8 10 8 18 0 7 -7 14 -7 24 0z
m-562 -11 c3 -5 -1 -10 -9 -10 -9 0 -16 5 -16 10 0 6 4 10 9 10 6 0 13 -4 16
-10z m784 -12 c-2 -13 0 -28 4 -35 4 -6 3 -14 -2 -17 -5 -4 -12 -2 -16 4 -13
21 -22 9 -19 -27 2 -21 3 -44 3 -52 1 -9 7 -11 19 -6 9 4 24 8 32 8 15 0 42
22 36 28 -2 2 -6 25 -8 52 -4 36 -2 47 9 47 8 0 11 -4 8 -10 -4 -6 6 -10 22
-11 l28 -1 -27 -11 c-33 -13 -37 -27 -8 -27 15 0 20 -7 20 -26 0 -15 -4 -23
-11 -19 -6 4 -5 -2 3 -14 14 -23 24 -26 33 -11 10 17 34 11 45 -11 9 -15 8
-24 -1 -35 -10 -13 -10 -17 1 -24 11 -7 11 -11 1 -24 -11 -13 -11 -16 3 -16 9
0 16 -4 16 -10 0 -5 -5 -10 -11 -10 -6 0 -9 -6 -6 -12 2 -7 11 -12 21 -10 24
4 20 -13 -6 -25 -34 -15 -45 -6 -40 29 3 21 1 29 -7 24 -7 -5 -11 2 -11 18 0
13 3 26 8 29 4 2 1 2 -5 1 -18 -5 -16 13 2 23 19 11 3 36 -18 27 -9 -3 -18
-14 -18 -23 -1 -14 -2 -14 -6 2 -2 9 -8 17 -13 17 -20 0 -40 -13 -40 -27 0 -9
6 -13 15 -9 8 3 15 1 15 -4 0 -6 -6 -11 -12 -11 -7 -1 -25 -3 -40 -5 -27 -3
-26 -1 17 43 25 25 44 47 42 49 -6 6 -111 -38 -118 -49 -17 -25 -25 116 -9
156 7 17 9 18 9 5 1 -24 21 -23 21 0 0 17 8 32 17 32 3 0 3 -10 2 -22z m271
-8 c0 -5 -2 -10 -4 -10 -3 0 -8 5 -11 10 -3 6 -1 10 4 10 6 0 11 -4 11 -10z
m-525 -10 c3 -5 2 -10 -4 -10 -5 0 -13 5 -16 10 -3 6 -2 10 4 10 5 0 13 -4 16
-10z m-434 -16 c-19 -8 -37 -12 -40 -9 -9 10 22 25 49 24 23 0 22 -1 -9 -15z
m-68 -42 c21 -23 12 -34 -18 -22 -13 5 -32 6 -44 3 -12 -3 -21 -1 -21 6 0 6 9
11 20 11 11 0 20 5 20 10 0 16 26 11 43 -8z m87 -38 c0 -9 -11 -14 -30 -14
-29 0 -29 1 -12 18 19 20 42 18 42 -4z m680 16 c0 -5 -8 -10 -17 -10 -15 0
-16 2 -3 10 19 12 20 12 20 0z m-790 -14 c0 -3 -4 -8 -10 -11 -5 -3 -10 -1
-10 4 0 6 5 11 10 11 6 0 10 -2 10 -4z m704 -77 c4 -50 -5 -79 -24 -79 -12 0
-20 28 -14 45 4 8 14 15 23 15 13 0 13 2 2 9 -9 6 -11 18 -6 40 9 43 14 36 19
-30z m-674 30 c0 -11 -4 -18 -10 -14 -5 3 -7 12 -3 20 7 21 13 19 13 -6z m65
11 c4 -6 -7 -10 -27 -9 -31 1 -32 1 -8 9 14 4 26 8 27 9 1 1 5 -3 8 -9z m-107
-18 c2 -7 -3 -12 -12 -12 -9 0 -16 7 -16 16 0 17 22 14 28 -4z m1012 -22 c0
-5 -8 -10 -17 -10 -15 0 -16 2 -3 10 19 12 20 12 20 0z m-850 -15 c-14 -17
-40 -20 -40 -6 0 8 18 16 44 20 5 0 3 -6 -4 -14z m-110 -5 c0 -5 14 -10 31
-10 17 0 28 -4 24 -10 -3 -5 -1 -10 6 -10 7 0 4 -7 -7 -15 -18 -13 -18 -14 -1
-15 10 0 15 -5 12 -10 -4 -6 -14 -10 -23 -9 -33 3 -43 -1 -36 -13 5 -9 2 -9
-9 1 -18 14 -24 37 -8 26 10 -6 36 33 28 41 -3 3 -13 6 -24 7 -11 0 -25 7 -32
14 -9 10 -7 13 14 13 14 0 25 -4 25 -10z m710 -20 c-5 -10 -7 -26 -4 -34 4
-10 1 -16 -7 -16 -10 0 -10 -3 -2 -11 6 -6 9 -18 6 -25 -3 -9 2 -14 13 -14 12
0 15 -3 8 -10 -6 -6 -25 -7 -43 -4 -23 5 -29 9 -19 15 10 7 9 9 -4 9 -14 0
-16 -6 -11 -31 l6 -31 -29 18 c-40 25 -42 27 -16 20 24 -8 31 8 7 18 -24 9
-17 24 9 19 18 -4 25 0 29 17 3 12 10 19 16 15 6 -3 12 2 13 12 2 33 3 38 11
51 13 20 29 3 17 -18z m823 -238 l268 -268 -3 -67 -3 -67 -293 293 -294 294
21 42 c12 22 25 41 29 41 4 0 128 -121 275 -268z m5988 226 l21 -42 -874 -873
-875 -873 -68 0 -68 0 914 915 c503 503 917 915 921 915 4 0 17 -19 29 -42z
m-6673 10 c2 -10 -6 -17 -22 -20 -34 -7 -40 1 -18 23 20 20 36 19 40 -3z m-98
-12 c0 -3 -4 -8 -10 -11 -5 -3 -10 -1 -10 4 0 6 5 11 10 11 6 0 10 -2 10 -4z
m30 -47 c0 -11 -4 -18 -10 -14 -5 3 -7 12 -3 20 7 21 13 19 13 -6z m70 -1 c0
-6 -3 -8 -6 -5 -4 3 -15 2 -25 -4 -15 -7 -19 -6 -19 6 0 9 9 15 25 15 14 0 25
-5 25 -12z m-753 -45 c-11 -10 -26 8 -20 23 5 15 7 14 15 -1 6 -9 7 -19 5 -22z
m756 -35 c-9 -17 -21 -6 -15 14 3 14 2 19 -6 14 -7 -4 -12 -12 -12 -18 0 -5
-9 -22 -20 -38 -11 -15 -16 -31 -12 -35 4 -5 2 -5 -4 -2 -13 8 -10 83 4 80 5
-1 20 8 33 20 l24 22 6 -25 c3 -14 4 -28 2 -32z m537 -207 c61 -264 192 -582
345 -841 l65 -109 0 -125 c0 -69 -3 -126 -7 -126 -5 0 -31 33 -59 73 -175 245
-340 574 -430 856 -63 195 -133 509 -118 532 4 7 40 -22 94 -76 l88 -88 22
-96z m6166 147 c-65 -368 -205 -740 -406 -1079 -70 -118 -177 -269 -191 -269
-5 0 -9 54 -9 125 l0 124 44 69 c154 237 303 602 377 922 11 49 22 65 98 142
55 56 89 84 95 78 6 -6 3 -46 -8 -112z m-6766 102 c0 -5 -4 -10 -10 -10 -5 0
-10 5 -10 10 0 6 5 10 10 10 6 0 10 -4 10 -10z m120 -20 c0 -5 -2 -10 -4 -10
-3 0 -8 5 -11 10 -3 6 -1 10 4 10 6 0 11 -4 11 -10z m-230 -4 c0 -3 -4 -8 -10
-11 -5 -3 -10 -1 -10 4 0 6 5 11 10 11 6 0 10 -2 10 -4z m-530 -10 c0 -3 -4
-8 -10 -11 -5 -3 -10 -1 -10 4 0 6 5 11 10 11 6 0 10 -2 10 -4z m598 -21 c0
-19 -6 -25 -22 -24 -11 0 -15 3 -8 6 6 2 12 13 12 24 0 10 4 19 9 19 5 0 9
-11 9 -25z m427 -49 c12 -83 73 -321 115 -447 94 -283 266 -623 422 -836 l38
-52 -114 0 c-114 0 -208 -15 -294 -47 -37 -14 -46 -14 -57 -3 -24 25 -167 281
-223 399 -102 217 -172 412 -242 673 l-29 107 67 34 c92 46 177 111 242 184
34 37 57 56 61 49 4 -7 10 -34 14 -61z m6588 -94 c28 -22 85 -57 125 -77 54
-28 71 -42 68 -54 -3 -9 -18 -70 -35 -136 -81 -322 -240 -694 -406 -950 l-53
-83 -75 23 c-96 31 -234 48 -314 39 -35 -3 -63 -3 -63 1 0 4 26 44 58 88 242
339 440 828 517 1279 l6 38 59 -64 c33 -35 84 -82 113 -104z m-7085 127 c-2
-6 -8 -11 -13 -11 -6 0 -16 -4 -22 -10 -18 -15 -16 -2 3 16 18 18 37 21 32 5z
m-193 -29 c3 -5 1 -10 -4 -10 -6 0 -11 5 -11 10 0 6 2 10 4 10 3 0 8 -4 11
-10z m245 -4 c0 -9 -39 -13 -51 -5 -10 6 -4 9 19 9 17 0 32 -2 32 -4z m-140
-36 c0 -5 -4 -10 -10 -10 -5 0 -10 5 -10 10 0 6 5 10 10 10 6 0 10 -4 10 -10z
m90 -10 c-20 -13 -43 -13 -35 0 3 6 16 10 28 10 18 0 19 -2 7 -10z m1118 -715
l-3 -280 -62 106 c-117 200 -212 422 -286 671 -63 208 -73 209 153 -17 l200
-200 -2 -280z m5522 538 c-43 -162 -119 -361 -200 -528 -72 -146 -159 -300
-166 -293 -2 3 -4 130 -5 283 l-1 278 199 199 c109 109 199 194 201 189 2 -6
-11 -63 -28 -128z m-6535 -80 c27 -121 136 -444 200 -588 65 -147 156 -323
227 -438 26 -43 48 -80 48 -83 0 -5 -77 -44 -88 -44 -8 0 -92 137 -165 271
-104 190 -227 501 -296 749 -55 201 -55 191 -1 205 25 7 48 10 51 8 4 -1 15
-38 24 -80z m7268 70 c15 -3 30 -10 33 -14 17 -27 -112 -436 -208 -664 -87
-204 -264 -530 -295 -542 -6 -2 -30 7 -52 22 l-41 26 38 57 c166 246 339 652
427 1002 35 139 32 133 53 125 9 -3 29 -9 45 -12z m287 -38 c0 -28 -78 -321
-115 -430 -104 -308 -253 -616 -435 -902 l-15 -23 -36 36 -37 36 76 126 c185
311 335 668 417 992 15 58 31 122 36 143 10 37 10 37 59 37 37 0 50 -4 50 -15z
m-7793 -130 c91 -356 252 -739 445 -1058 l60 -100 -36 -35 c-19 -20 -37 -34
-40 -31 -23 23 -157 264 -236 424 -139 283 -213 480 -285 760 -20 77 -39 148
-42 158 -4 16 1 18 48 15 l53 -3 33 -130z m3753 -2068 c-3 -2 -28 -7 -56 -10
l-51 -6 -997 993 -996 993 0 69 0 68 1052 -1051 c579 -579 1050 -1054 1048
-1056z m2620 1529 l0 -414 -47 -16 c-26 -9 -48 -16 -50 -16 -2 0 -3 174 -3
387 l0 387 42 43 c23 24 46 43 50 43 4 0 8 -186 8 -414z m-2890 -1597 c0 -7
-67 -39 -83 -39 -6 0 -402 390 -879 867 l-868 868 0 70 0 70 915 -915 c503
-503 915 -918 915 -921z m2643 1424 l-3 -348 -38 -32 c-20 -18 -40 -32 -44
-33 -5 0 -8 152 -8 337 l0 337 42 43 c23 24 45 43 48 43 3 0 4 -156 3 -347z
m-4309 68 c132 -132 154 -158 130 -154 -16 3 -43 19 -60 35 -65 61 -163 54
-211 -15 l-23 -32 0 163 c0 89 1 162 3 162 1 0 74 -71 161 -159z m4186 -7 l0
-167 -23 34 c-45 67 -151 77 -208 20 -15 -16 -43 -31 -61 -35 -29 -6 -16 11
127 154 88 88 161 160 162 160 2 0 3 -75 3 -166z m-4143 -115 c33 -32 13 -44
-30 -19 -76 45 -153 -29 -121 -115 8 -20 55 -45 85 -45 13 0 38 17 61 42 43
47 61 44 34 -7 -20 -36 -68 -65 -109 -65 -41 0 -91 41 -105 88 -12 37 -12 46
5 79 34 71 126 92 180 42z m4083 -6 c77 -69 43 -186 -58 -200 -51 -7 -98 18
-119 62 -24 51 -8 54 35 7 42 -45 52 -48 101 -31 36 13 51 35 51 79 0 64 -71
99 -130 65 -54 -31 -71 -7 -17 25 47 29 100 26 137 -7z m-4125 -27 c18 -13 18
-14 -3 -36 -12 -13 -26 -38 -33 -57 -9 -29 -13 -32 -30 -22 -45 24 -43 100 3
119 32 12 42 12 63 -4z m4103 -21 c24 -30 17 -71 -15 -92 -19 -13 -22 -12 -32
19 -6 17 -21 43 -33 56 -19 20 -20 24 -8 32 28 18 68 11 88 -15z m-3942 -15
c74 -46 64 -167 -17 -200 -43 -18 -49 -3 -12 28 47 41 56 65 39 106 -16 39
-42 56 -84 56 -21 0 -39 -11 -66 -41 -41 -46 -55 -46 -36 2 27 64 112 88 176
49z m3845 -19 c34 -34 51 -71 32 -71 -3 0 -23 18 -43 40 -28 30 -45 40 -68 40
-46 0 -84 -37 -85 -84 -1 -34 4 -43 38 -72 46 -38 40 -55 -11 -31 -23 12 -40
29 -50 54 -34 81 21 163 109 163 32 0 46 -7 78 -39z m-3867 -27 c23 -23 20
-32 -18 -48 -18 -7 -43 -24 -55 -37 -11 -12 -21 -18 -21 -12 0 5 9 18 20 28
11 10 25 33 32 51 14 38 20 41 42 18z m246 -149 l165 -165 -169 0 -169 0 42
38 c64 57 69 129 12 194 -22 26 -57 98 -48 98 1 0 76 -74 167 -165z m3408 133
c-6 -18 -21 -44 -33 -58 -34 -38 -45 -65 -45 -111 0 -37 6 -48 45 -86 l45 -43
-167 0 -168 0 165 165 c91 91 166 165 167 165 1 0 -3 -15 -9 -32z m130 -2 c7
-18 21 -41 32 -51 11 -10 20 -22 20 -28 0 -5 -16 5 -35 22 -20 17 -44 31 -55
31 -28 0 -32 14 -9 38 27 29 33 28 47 -12z m-4015 -79 c19 -9 41 -17 48 -17
20 0 79 -62 79 -82 0 -32 28 -75 62 -97 l33 -21 -129 0 c-172 0 -166 -6 -166
164 l0 131 19 -31 c10 -17 34 -38 54 -47z m4261 -198 c-15 -17 -33 -19 -153
-19 l-136 0 31 19 c37 23 74 72 74 98 0 23 56 78 90 88 42 12 89 45 97 68 5
14 9 -27 11 -107 2 -109 0 -132 -14 -147z m-271 227 c44 -18 67 -56 67 -108 0
-50 -19 -82 -60 -103 -80 -41 -170 13 -170 102 0 39 31 103 50 103 15 0 12
-32 -5 -54 -39 -51 4 -130 70 -130 29 0 43 7 61 28 37 42 32 82 -16 126 -55
51 -54 60 3 36z m-3743 -3 c0 -5 -16 -21 -35 -36 -29 -23 -35 -34 -35 -67 0
-30 6 -43 31 -64 40 -34 74 -33 110 3 32 33 38 75 14 107 -8 10 -15 27 -15 36
0 25 28 11 45 -23 32 -61 10 -135 -49 -163 -42 -20 -69 -20 -106 -1 -42 22
-60 53 -60 106 0 38 6 53 29 78 26 28 71 43 71 24z m-123 -48 c3 -9 3 -19 -1
-22 -7 -7 -36 16 -36 28 0 15 30 10 37 -6z m3993 6 c0 -5 -7 -14 -15 -21 -18
-15 -42 1 -31 19 8 13 46 15 46 2z m-3790 -60 c0 -32 -8 -44 -37 -60 -31 -16
-50 -14 -73 9 -27 27 -25 37 9 45 16 3 39 17 51 30 28 29 50 18 50 -24z m3595
29 c10 -11 33 -25 51 -32 39 -14 41 -21 14 -48 -54 -54 -132 10 -104 84 8 21
17 20 39 -4z m1106 -104 c216 -59 383 -216 460 -432 15 -42 22 -93 26 -179 5
-103 2 -132 -16 -200 -100 -369 -489 -580 -848 -460 -112 38 -178 79 -264 165
-63 63 -85 94 -122 171 -53 110 -70 182 -70 299 0 212 111 423 285 541 70 48
129 74 223 100 83 23 235 21 326 -5z m-5528 -2 c65 -15 180 -64 228 -98 84
-58 176 -168 218 -260 40 -86 70 -221 61 -271 -1 -5 -1 -34 0 -62 2 -85 -36
-203 -98 -302 -128 -205 -352 -321 -592 -308 -104 6 -208 34 -280 74 -164 93
-285 251 -331 433 -22 89 -18 251 10 340 69 223 256 399 486 456 71 18 214 17
298 -2z m4705 -98 c2 -3 -11 -23 -29 -45 l-32 -41 -1412 0 -1411 0 -44 45 -44
45 195 2 c296 4 2772 -2 2777 -6z m-3488 -41 l44 -45 -351 0 -351 0 -24 33
c-13 17 -28 38 -32 45 -6 9 63 12 331 12 l339 0 44 -45z m240 -241 l45 -44
-419 2 -419 3 -12 42 -13 43 212 2 c116 2 290 2 386 0 l175 -3 45 -45z m3106
43 c1 -1 -3 -21 -9 -45 l-11 -42 -1241 0 -1241 0 -42 43 c-23 24 -40 45 -38
48 4 4 2578 1 2582 -4z m-3553 -174 c237 -146 540 -273 828 -347 l131 -34 84
-83 c46 -46 84 -88 84 -93 0 -18 -227 24 -421 80 -260 74 -538 194 -773 335
-120 71 -258 169 -264 187 -3 9 25 12 118 12 l122 0 91 -57z m722 -143 c110
-110 195 -200 190 -200 -22 0 -206 53 -319 91 -143 48 -359 146 -493 222 -165
94 -177 86 142 87 l280 0 200 -200z m805 180 c-16 -13 -41 -20 -70 -20 -51 0
-100 -26 -126 -65 -12 -19 -15 -40 -12 -80 3 -30 4 -55 4 -55 -1 0 -55 54
-121 120 l-120 120 235 0 235 0 -25 -20z m570 17 c0 -1 -53 -56 -119 -121
l-118 -118 4 49 c9 90 -47 153 -137 153 -29 0 -54 7 -70 20 l-25 20 233 0
c127 0 232 -1 232 -3z m170 -4 c0 -4 -111 -117 -247 -250 l-248 -243 -45 6
c-25 4 -49 9 -54 12 -4 2 99 112 230 243 l239 239 62 0 c35 0 63 -3 63 -7z
m340 0 c0 -14 -574 -583 -588 -583 -12 0 -70 26 -82 37 -2 2 119 127 270 278
l275 275 62 0 c35 0 63 -3 63 -7z m606 -2 c-21 -33 -407 -225 -571 -284 -113
-41 -338 -107 -363 -107 -10 0 70 87 183 200 l200 200 278 0 c160 0 276 -4
273 -9z m304 -5 c0 -16 -205 -155 -345 -234 -285 -160 -623 -286 -936 -347
-134 -26 -179 -30 -179 -17 0 4 37 45 83 90 l83 82 151 40 c269 70 537 181
778 323 l130 76 118 1 c94 0 117 -3 117 -14z m-1862 -26 c48 -29 68 -102 41
-151 -16 -31 -29 -12 -23 35 5 36 2 47 -19 71 -19 22 -33 29 -62 29 -29 0 -43
-7 -62 -29 -21 -24 -24 -35 -19 -71 6 -47 -7 -66 -23 -35 -14 25 -14 87 0 112
15 29 69 59 104 59 17 0 45 -9 63 -20z m-1688 -207 c323 -185 669 -313 1021
-379 l95 -17 -85 -86 c-62 -62 -99 -109 -131 -169 -66 -122 -55 -113 -130 -96
-167 39 -429 126 -590 195 -103 44 -325 158 -428 219 -82 49 -102 65 -97 78
42 100 70 284 59 385 l-7 59 94 -65 c52 -35 141 -91 199 -124z m1504 172 c-4
-8 -17 -15 -31 -15 -37 0 -73 -42 -73 -85 0 -81 93 -115 145 -53 23 27 26 37
20 74 -7 49 7 65 24 28 16 -37 13 -75 -9 -112 -22 -36 -54 -52 -106 -52 -50 0
-104 52 -106 102 -3 77 40 127 109 128 25 0 31 -4 27 -15z m342 -19 c19 -19
35 -41 35 -50 1 -9 2 -22 3 -28 4 -27 -17 -69 -46 -93 -22 -19 -41 -25 -75
-25 -38 0 -50 5 -79 34 -28 28 -34 42 -34 76 0 46 16 84 31 75 5 -4 7 -27 3
-53 -5 -41 -3 -50 20 -75 53 -57 146 -20 146 58 0 43 -36 85 -73 85 -14 0 -27
7 -31 15 -4 12 3 15 30 15 28 0 44 -8 70 -34z m1727 -336 c14 -46 23 -88 21
-91 -8 -14 -218 -132 -344 -195 -229 -113 -440 -193 -675 -255 -82 -21 -153
-39 -157 -39 -4 0 -22 28 -39 63 -44 87 -121 188 -191 251 l-60 53 48 7 c96
14 354 77 466 115 302 102 592 246 823 409 l70 49 6 -141 c5 -108 13 -161 32
-226z m-1918 350 c4 -6 1 -17 -5 -25 -6 -8 -15 -35 -20 -62 -6 -40 -8 -42 -9
-15 0 18 -8 46 -16 63 -9 16 -13 34 -10 39 8 13 52 13 60 0z m-165 -62 c0 -18
7 -46 15 -62 20 -37 20 -36 -18 -36 -40 0 -69 28 -69 65 0 31 28 65 54 65 14
0 18 -8 18 -32z m322 15 c22 -20 23 -70 1 -95 -9 -10 -30 -18 -50 -18 -37 0
-39 4 -18 40 8 14 14 40 15 58 0 37 21 43 52 15z m-164 -120 c2 -8 -6 -13 -22
-13 -25 0 -33 10 -19 24 10 10 36 3 41 -11z m48 -45 c27 -16 46 -19 85 -16
l51 5 -88 -88 c-73 -73 -94 -89 -119 -89 -25 0 -46 16 -119 89 l-88 88 49 -4
c35 -3 57 1 83 15 46 26 103 26 146 0z m-1954 -319 c275 -166 633 -315 960
-399 l126 -33 -13 -44 c-8 -25 -16 -47 -18 -49 -7 -8 -232 52 -367 96 -176 59
-371 141 -535 225 -112 57 -283 153 -304 171 -4 4 41 94 47 94 1 0 48 -28 104
-61z m3898 21 c11 -21 20 -43 20 -48 0 -31 -475 -272 -695 -353 -215 -79 -498
-160 -511 -146 -3 3 -12 25 -19 50 l-14 46 72 16 c120 26 364 104 497 157 159
63 398 181 520 257 52 32 98 59 102 60 4 1 17 -17 28 -39z m-1900 -84 c257
-47 436 -205 522 -462 19 -58 23 -89 22 -194 0 -108 -4 -135 -26 -198 -125
-350 -473 -531 -823 -430 -107 31 -190 82 -281 172 -66 65 -89 98 -123 168
-114 236 -86 499 75 710 85 109 246 207 385 232 97 18 157 18 249 2z m2059
-120 l33 -34 -44 -29 c-208 -143 -589 -323 -888 -421 -150 -49 -383 -112 -414
-112 -12 0 -16 11 -16 48 l0 48 133 33 c363 92 743 251 1062 445 50 30 92 55
96 55 3 1 20 -14 38 -33z"/>
<path d="M4717 9403 c-4 -3 -7 -11 -7 -17 0 -6 5 -5 12 2 6 6 9 14 7 17 -3 3
-9 2 -12 -2z"/>
<path d="M4903 9393 c-13 -2 -23 -9 -23 -15 0 -6 11 -8 25 -6 13 3 22 2 20 -2
-8 -13 24 -20 47 -11 23 9 23 9 -4 16 -16 4 -28 11 -28 16 0 5 -3 8 -7 8 -5
-1 -18 -4 -30 -6z"/>
<path d="M4670 9380 c0 -5 5 -10 11 -10 5 0 7 5 4 10 -3 6 -8 10 -11 10 -2 0
-4 -4 -4 -10z"/>
<path d="M4718 9369 c-9 -6 -2 -9 20 -9 33 0 42 -13 18 -27 -12 -6 -10 -11 10
-20 13 -6 24 -7 24 -3 0 5 -6 11 -12 13 -23 9 15 28 44 23 15 -3 30 -1 33 4 4
6 -7 10 -25 10 -17 0 -29 3 -26 8 6 10 -69 11 -86 1z"/>
<path d="M5098 9373 c7 -3 16 -2 19 1 4 3 -2 6 -13 5 -11 0 -14 -3 -6 -6z"/>
<path d="M4585 9350 c-3 -5 1 -10 9 -10 9 0 16 5 16 10 0 6 -4 10 -9 10 -6 0
-13 -4 -16 -10z"/>
<path d="M4873 9343 c-7 -2 -13 -10 -13 -16 0 -6 -7 -18 -15 -27 -13 -14 -11
-16 20 -12 19 2 35 8 35 13 0 5 -8 6 -17 2 -17 -6 -17 -5 0 14 26 29 22 39
-10 26z"/>
<path d="M4650 9321 c0 -5 -10 -7 -22 -5 -20 4 -21 3 -4 -4 14 -6 16 -11 8
-16 -7 -4 -10 -12 -7 -17 9 -14 25 -11 25 6 0 10 10 15 26 15 22 0 25 2 14 15
-14 16 -40 20 -40 6z"/>
<path d="M4808 9303 c7 -3 16 -2 19 1 4 3 -2 6 -13 5 -11 0 -14 -3 -6 -6z"/>
<path d="M4602 9238 c3 -7 13 -15 24 -17 16 -3 17 -1 5 13 -16 19 -34 21 -29
4z"/>
<path d="M4683 9233 c4 -3 2 -12 -4 -19 -6 -7 -8 -18 -4 -24 9 -15 35 -12 35
4 0 23 -11 46 -23 46 -6 0 -7 -3 -4 -7z"/>
<path d="M4537 9214 c5 -13 3 -15 -8 -10 -8 4 -5 0 5 -8 11 -9 23 -16 28 -16
11 0 -7 43 -20 48 -8 2 -10 -3 -5 -14z"/>
<path d="M4470 9210 c0 -5 7 -7 15 -4 8 4 15 8 15 10 0 2 -7 4 -15 4 -8 0 -15
-4 -15 -10z"/>
<path d="M4575 9210 c4 -6 11 -8 16 -5 14 9 11 15 -7 15 -8 0 -12 -5 -9 -10z"/>
<path d="M4798 9213 c-17 -3 -26 -10 -26 -21 0 -9 -3 -25 -7 -34 -4 -11 -3
-18 3 -18 7 0 11 -74 12 -216 0 -119 1 -219 1 -222 1 -4 1 -62 0 -130 -1 -79
-5 -121 -11 -117 -5 3 -10 -3 -10 -14 0 -12 4 -21 9 -21 13 0 19 -79 6 -85 -5
-3 1 -2 15 1 57 15 109 48 152 97 l46 53 2 330 c2 181 2 334 1 339 -1 14 -52
31 -114 40 -26 3 -45 10 -42 16 4 5 3 8 -2 8 -4 -1 -20 -4 -35 -6z"/>
<path d="M4630 9200 c-8 -5 -11 -12 -8 -16 10 -9 38 3 38 16 0 12 -10 13 -30
0z"/>
<path d="M4466 9167 c-16 -12 -17 -15 -3 -20 10 -4 17 1 20 14 6 23 6 23 -17
6z"/>
<path d="M4641 9161 c-1 -9 -9 -12 -25 -9 -16 3 -23 1 -19 -8 2 -6 -1 -15 -6
-19 -13 -7 -5 -25 11 -25 5 0 8 6 5 14 -7 18 27 28 42 13 13 -13 13 0 1 28 -5
11 -9 14 -9 6z"/>
<path d="M5406 9152 c-3 -6 2 -13 11 -16 24 -8 33 -7 32 2 -1 4 -6 6 -12 4 -5
-2 -13 2 -17 9 -5 7 -10 8 -14 1z"/>
<path d="M4500 9130 c0 -5 7 -10 15 -10 8 0 15 5 15 10 0 6 -7 10 -15 10 -8 0
-15 -4 -15 -10z"/>
<path d="M4418 9123 c-10 -2 -18 -11 -18 -19 0 -12 3 -12 20 -2 11 7 20 16 20
20 0 5 -1 7 -2 7 -2 -1 -11 -3 -20 -6z"/>
<path d="M4680 9110 c0 -5 5 -10 11 -10 5 0 7 5 4 10 -3 6 -8 10 -11 10 -2 0
-4 -4 -4 -10z"/>
<path d="M4340 9084 c0 -8 5 -12 10 -9 6 3 10 10 10 16 0 5 -4 9 -10 9 -5 0
-10 -7 -10 -16z"/>
<path d="M4431 9091 c-11 -7 -11 -9 0 -13 11 -4 10 -8 -3 -21 -9 -9 -22 -17
-28 -17 -6 0 -8 -5 -4 -11 8 -13 61 35 61 56 0 17 -6 18 -26 6z"/>
<path d="M4500 9090 c0 -5 4 -10 9 -10 6 0 13 5 16 10 3 6 -1 10 -9 10 -9 0
-16 -4 -16 -10z"/>
<path d="M4655 9090 c-3 -5 -1 -10 4 -10 6 0 11 5 11 10 0 6 -2 10 -4 10 -3 0
-8 -4 -11 -10z"/>
<path d="M4695 9080 c3 -5 8 -10 11 -10 2 0 4 5 4 10 0 6 -5 10 -11 10 -5 0
-7 -4 -4 -10z"/>
<path d="M5400 9080 c0 -5 5 -10 11 -10 5 0 7 5 4 10 -3 6 -8 10 -11 10 -2 0
-4 -4 -4 -10z"/>
<path d="M4344 9054 c-18 -15 -18 -15 6 -10 14 3 31 6 38 6 7 0 10 5 7 10 -9
14 -28 12 -51 -6z"/>
<path d="M4485 9060 c-3 -6 1 -13 10 -16 19 -8 30 0 20 15 -8 14 -22 14 -30 1z"/>
<path d="M4675 9050 c28 -12 37 -12 30 0 -3 6 -16 10 -28 9 -21 0 -21 -1 -2
-9z"/>
<path d="M5405 9020 c-3 -5 1 -10 9 -10 9 0 16 5 16 10 0 6 -4 10 -9 10 -6 0
-13 -4 -16 -10z"/>
<path d="M4434 9011 c4 -6 2 -20 -5 -32 -9 -17 -8 -20 3 -17 7 3 13 11 13 19
0 13 7 15 35 11 5 -1 7 -9 4 -17 -8 -19 1 -19 31 1 34 22 31 31 -7 30 -18 0
-44 3 -57 8 -16 6 -21 5 -17 -3z"/>
<path d="M4610 8995 c0 -9 9 -15 21 -15 18 0 19 2 9 15 -7 8 -16 15 -21 15 -5
0 -9 -7 -9 -15z"/>
<path d="M4397 8948 c13 -15 83 -24 83 -10 0 4 -10 7 -22 7 -13 1 -34 5 -48 9
-21 8 -23 7 -13 -6z"/>
<path d="M5415 8930 c-3 -5 1 -10 9 -10 9 0 16 5 16 10 0 6 -4 10 -9 10 -6 0
-13 -4 -16 -10z"/>
<path d="M4495 8920 c-3 -5 -1 -10 4 -10 6 0 11 5 11 10 0 6 -2 10 -4 10 -3 0
-8 -4 -11 -10z"/>
<path d="M4390 8910 c0 -5 8 -14 18 -20 14 -9 14 -11 1 -7 -12 4 -16 -1 -16
-19 0 -29 18 -31 41 -5 17 18 16 20 -1 40 -18 22 -43 28 -43 11z"/>
<path d="M4470 8894 c0 -8 5 -12 10 -9 6 4 8 11 5 16 -9 14 -15 11 -15 -7z"/>
<path d="M4290 8882 c0 -4 14 -8 31 -8 22 -1 27 1 18 7 -17 11 -49 12 -49 1z"/>
<path d="M4615 8850 c-20 -13 -24 -20 -13 -20 9 0 19 -6 21 -12 3 -7 6 -4 6 8
1 11 6 25 13 32 18 18 7 15 -27 -8z"/>
<path d="M4435 8830 c-3 -5 -1 -10 4 -10 6 0 11 5 11 10 0 6 -2 10 -4 10 -3 0
-8 -4 -11 -10z"/>
<path d="M4310 8823 c0 -5 14 -8 30 -8 17 0 30 3 30 8 0 4 -13 7 -30 7 -16 0
-30 -3 -30 -7z"/>
<path d="M4728 8803 c6 -2 18 -2 25 0 6 3 1 5 -13 5 -14 0 -19 -2 -12 -5z"/>
<path d="M4320 8759 c0 -5 5 -7 10 -4 6 3 10 8 10 11 0 2 -4 4 -10 4 -5 0 -10
-5 -10 -11z"/>
<path d="M4270 8735 c7 -9 15 -13 17 -11 7 7 -7 26 -19 26 -6 0 -6 -6 2 -15z"/>
<path d="M4600 8740 c-24 -15 -7 -18 20 -3 14 7 18 13 10 13 -8 0 -22 -4 -30
-10z"/>
<path d="M4661 8730 c-17 -14 -19 -20 -8 -20 9 0 23 7 31 16 31 30 13 33 -23
4z"/>
<path d="M5400 8742 c0 -4 12 -8 28 -9 23 -1 24 -1 7 7 -26 11 -35 12 -35 2z"/>
<path d="M4696 8701 c-4 -7 -5 -15 -2 -18 9 -9 19 4 14 18 -4 11 -6 11 -12 0z"/>
<path d="M4265 8680 c-3 -5 -2 -10 4 -10 5 0 13 5 16 10 3 6 2 10 -4 10 -5 0
-13 -4 -16 -10z"/>
<path d="M5470 8665 c0 -14 4 -25 9 -25 5 0 9 11 9 25 0 14 -4 25 -9 25 -5 0
-9 -11 -9 -25z"/>
<path d="M4395 8670 c-3 -5 -1 -10 4 -10 6 0 11 5 11 10 0 6 -2 10 -4 10 -3 0
-8 -4 -11 -10z"/>
<path d="M4440 8651 c0 -5 11 -8 25 -8 14 0 25 3 25 8 0 5 -11 9 -25 9 -14 0
-25 -4 -25 -9z"/>
<path d="M4528 8643 c7 -3 16 -2 19 1 4 3 -2 6 -13 5 -11 0 -14 -3 -6 -6z"/>
<path d="M5430 8640 c0 -5 5 -10 11 -10 5 0 7 5 4 10 -3 6 -8 10 -11 10 -2 0
-4 -4 -4 -10z"/>
<path d="M5374 8615 c-18 -14 -18 -14 4 -8 12 3 22 9 22 14 0 12 -3 11 -26 -6z"/>
<path d="M4687 8606 c-4 -10 0 -12 14 -9 10 3 16 9 13 14 -8 13 -21 11 -27 -5z"/>
<path d="M5478 8603 c7 -3 16 -2 19 1 4 3 -2 6 -13 5 -11 0 -14 -3 -6 -6z"/>
<path d="M4700 8575 c-9 -11 -23 -14 -39 -11 -14 3 -20 3 -13 0 10 -5 9 -10
-4 -25 -16 -17 -16 -19 -1 -19 10 0 17 5 17 10 0 6 11 8 28 4 15 -4 24 -3 20
1 -4 4 -3 16 3 27 14 25 6 33 -11 13z"/>
<path d="M5485 8570 c3 -5 8 -10 11 -10 2 0 4 5 4 10 0 6 -5 10 -11 10 -5 0
-7 -4 -4 -10z"/>
<path d="M4535 8540 c-3 -5 -1 -10 4 -10 6 0 11 5 11 10 0 6 -2 10 -4 10 -3 0
-8 -4 -11 -10z"/>
<path d="M4598 8533 c7 -3 16 -2 19 1 4 3 -2 6 -13 5 -11 0 -14 -3 -6 -6z"/>
<path d="M5443 8523 c-18 -7 -16 -23 2 -23 8 0 15 7 15 15 0 8 -1 15 -2 14 -2
0 -9 -3 -15 -6z"/>
<path d="M4470 8510 c-8 -5 -10 -10 -5 -10 6 0 17 5 25 10 8 5 11 10 5 10 -5
0 -17 -5 -25 -10z"/>
<path d="M4680 8504 c-32 -12 -32 -13 -9 -13 14 -1 34 6 45 14 23 17 11 17
-36 -1z"/>
<path d="M4740 8516 c0 -2 7 -6 15 -10 8 -3 15 -1 15 4 0 6 -7 10 -15 10 -8 0
-15 -2 -15 -4z"/>
<path d="M4540 8500 c0 -5 5 -10 10 -10 6 0 10 5 10 10 0 6 -4 10 -10 10 -5 0
-10 -4 -10 -10z"/>
<path d="M5310 8489 c0 -5 5 -7 10 -4 6 3 10 8 10 11 0 2 -4 4 -10 4 -5 0 -10
-5 -10 -11z"/>
<path d="M4700 8480 c-8 -6 -32 -7 -54 -4 -27 4 -37 3 -32 -5 4 -6 12 -9 17
-6 5 4 9 1 9 -6 0 -7 11 -9 33 -5 17 3 38 7 45 8 6 1 12 7 12 15 0 15 -9 16
-30 3z"/>
<path d="M4720 8440 c-1 -8 -2 -20 -1 -26 1 -6 -9 -15 -21 -21 -12 -5 -18 -12
-12 -15 5 -2 18 0 29 6 16 9 19 17 14 41 -4 17 -8 23 -9 15z"/>
<path d="M4630 8431 c-15 -4 -20 -10 -13 -14 6 -4 24 0 39 8 30 15 18 18 -26
6z"/>
<path d="M4460 8400 c0 -5 5 -10 10 -10 6 0 10 5 10 10 0 6 -4 10 -10 10 -5 0
-10 -4 -10 -10z"/>
<path d="M4540 8370 c0 -13 18 -22 24 -11 3 5 -1 11 -9 15 -8 3 -15 1 -15 -4z"/>
<path d="M4651 8362 c-10 -18 -9 -22 4 -22 22 0 19 -15 -7 -33 -19 -13 -20
-16 -5 -16 9 -1 17 4 17 9 0 6 7 10 15 10 18 0 20 -16 3 -23 -7 -3 -1 -6 13
-6 15 -1 32 6 39 14 10 13 9 15 -9 15 -20 0 -25 9 -22 38 1 6 -5 12 -13 12 -8
0 -16 6 -18 12 -3 8 -9 4 -17 -10z"/>
<path d="M4720 8370 c0 -5 5 -10 11 -10 5 0 7 5 4 10 -3 6 -8 10 -11 10 -2 0
-4 -4 -4 -10z"/>
<path d="M4587 8293 c-11 -11 -8 -33 5 -33 6 0 8 3 5 7 -4 3 -2 12 4 20 11 13
-2 19 -14 6z"/>
<path d="M4808 8243 c7 -3 16 -2 19 1 4 3 -2 6 -13 5 -11 0 -14 -3 -6 -6z"/>
<path d="M4890 8220 c0 -5 7 -10 16 -10 8 0 12 5 9 10 -3 6 -10 10 -16 10 -5
0 -9 -4 -9 -10z"/>
<path d="M4766 8185 c4 -8 11 -15 18 -15 6 0 4 -4 -4 -10 -12 -8 -12 -10 3
-16 23 -9 26 -4 20 29 -4 18 -12 27 -24 27 -12 0 -16 -5 -13 -15z"/>
<path d="M4940 8188 c0 -5 -10 -13 -22 -19 -20 -8 -20 -9 6 -4 15 3 35 12 42
20 12 12 11 14 -6 12 -11 -1 -20 -5 -20 -9z"/>
<path d="M4838 8163 c7 -3 16 -2 19 1 4 3 -2 6 -13 5 -11 0 -14 -3 -6 -6z"/>
<path d="M1930 8219 c0 -5 5 -7 10 -4 6 3 10 8 10 11 0 2 -4 4 -10 4 -5 0 -10
-5 -10 -11z"/>
<path d="M2435 8210 c-4 -6 -2 -17 4 -24 6 -7 7 -16 3 -20 -4 -4 7 -4 23 -1
36 9 59 28 30 25 -41 -4 -54 0 -49 15 7 17 -2 20 -11 5z"/>
<path d="M2490 8145 c-8 -9 -8 -15 -2 -15 12 0 26 19 19 26 -2 2 -10 -2 -17
-11z"/>
<path d="M2530 8140 c-13 -8 -13 -10 2 -10 9 0 20 5 23 10 8 13 -5 13 -25 0z"/>
<path d="M2480 8095 c0 -8 0 -17 0 -20 0 -3 -10 -12 -22 -20 l-23 -14 30 -2
c17 -1 23 -3 13 -6 -10 -2 -18 -9 -18 -14 0 -6 4 -8 9 -5 5 4 22 1 37 -4 16
-6 46 -8 69 -4 22 4 34 9 27 11 -10 4 -10 8 -1 19 10 13 14 12 30 -2 13 -12
19 -13 19 -4 0 7 7 10 16 6 14 -5 15 -4 4 9 -11 13 -27 15 -80 10 -58 -5 -69
-3 -84 14 -10 11 -15 25 -11 30 3 6 1 11 -4 11 -6 0 -11 -7 -11 -15z"/>
<path d="M2570 8089 c0 -16 4 -19 23 -13 28 8 30 10 22 23 -12 20 -45 13 -45
-10z"/>
<path d="M2525 8090 c3 -5 8 -10 11 -10 2 0 4 5 4 10 0 6 -5 10 -11 10 -5 0
-7 -4 -4 -10z"/>
<path d="M1788 8053 c7 -3 16 -2 19 1 4 3 -2 6 -13 5 -11 0 -14 -3 -6 -6z"/>
<path d="M2450 7992 c0 -6 5 -12 10 -14 6 -2 12 -13 13 -26 0 -12 6 -22 13
-22 6 0 17 -7 24 -15 14 -17 30 -20 30 -5 0 6 -10 14 -22 19 -16 6 -18 10 -8
16 9 5 15 4 18 -3 2 -8 9 -9 22 -2 13 7 20 6 24 -6 5 -13 9 -14 21 -4 8 7 15
19 15 27 0 12 -7 14 -32 9 -22 -4 -37 -1 -50 11 -14 12 -21 14 -30 5 -9 -9
-16 -8 -30 5 -10 9 -18 11 -18 5z"/>
<path d="M2635 7990 c-8 -13 -1 -24 14 -19 6 3 7 10 2 18 -6 10 -10 10 -16 1z"/>
<path d="M2420 7980 c0 -5 5 -10 11 -10 5 0 7 5 4 10 -3 6 -8 10 -11 10 -2 0
-4 -4 -4 -10z"/>
<path d="M2670 7945 c-11 -13 -10 -14 4 -9 9 3 16 10 16 15 0 13 -6 11 -20 -6z"/>
<path d="M1920 7936 c0 -9 5 -16 10 -16 6 0 10 4 10 9 0 6 -4 13 -10 16 -5 3
-10 -1 -10 -9z"/>
<path d="M1870 7916 c0 -7 6 -19 14 -25 11 -9 12 -6 8 14 -5 26 -22 35 -22 11z"/>
<path d="M2626 7905 c4 -8 10 -12 15 -9 11 6 2 24 -11 24 -5 0 -7 -7 -4 -15z"/>
<path d="M2568 7903 c7 -3 16 -2 19 1 4 3 -2 6 -13 5 -11 0 -14 -3 -6 -6z"/>
<path d="M1570 7889 c0 -5 5 -7 10 -4 6 3 10 8 10 11 0 2 -4 4 -10 4 -5 0 -10
-5 -10 -11z"/>
<path d="M2469 7887 c6 -8 9 -17 6 -21 -3 -3 0 -2 6 3 12 10 4 31 -13 31 -7 0
-7 -4 1 -13z"/>
<path d="M2545 7870 c-4 -6 5 -10 20 -10 15 0 24 4 20 10 -3 6 -12 10 -20 10
-8 0 -17 -4 -20 -10z"/>
<path d="M2695 7867 c-5 -12 -16 -17 -34 -15 -32 4 -40 -15 -9 -22 25 -6 62
23 55 43 -3 8 -7 5 -12 -6z"/>
<path d="M2495 7840 c4 -7 2 -16 -5 -20 -8 -5 -3 -9 13 -12 22 -4 24 -2 18 16
-5 11 -14 22 -21 24 -8 3 -10 0 -5 -8z"/>
<path d="M1560 7820 c0 -9 32 -30 46 -30 4 0 -1 9 -11 20 -19 21 -35 26 -35
10z"/>
<path d="M1710 7811 c0 -6 5 -13 10 -16 6 -3 10 1 10 9 0 9 -4 16 -10 16 -5 0
-10 -4 -10 -9z"/>
<path d="M2568 7813 c6 -2 18 -2 25 0 6 3 1 5 -13 5 -14 0 -19 -2 -12 -5z"/>
<path d="M2598 7803 c-10 -2 -18 -9 -18 -15 0 -6 10 -8 23 -4 12 3 29 6 37 6
13 0 13 1 0 10 -8 5 -17 9 -20 9 -3 -1 -13 -3 -22 -6z"/>
<path d="M2661 7807 c10 -9 89 -17 89 -9 0 5 -21 10 -47 11 -26 1 -45 0 -42
-2z"/>
<path d="M1527 7794 c-12 -13 -8 -22 14 -27 15 -4 19 -1 17 10 -3 18 -21 27
-31 17z"/>
<path d="M2510 7780 c0 -5 7 -10 15 -10 8 0 15 5 15 10 0 6 -7 10 -15 10 -8 0
-15 -4 -15 -10z"/>
<path d="M2610 7770 c0 -5 7 -7 15 -4 8 4 15 8 15 10 0 2 -7 4 -15 4 -8 0 -15
-4 -15 -10z"/>
<path d="M2740 7760 c-13 -8 -13 -10 2 -10 9 0 20 5 23 10 8 13 -5 13 -25 0z"/>
<path d="M2545 7750 c3 -5 8 -10 11 -10 2 0 4 5 4 10 0 6 -5 10 -11 10 -5 0
-7 -4 -4 -10z"/>
<path d="M2569 7723 c-12 -16 -12 -17 1 -7 8 7 24 14 35 17 19 4 19 5 -1 6
-12 0 -28 -7 -35 -16z"/>
<path d="M1658 7723 c6 -2 18 -2 25 0 6 3 1 5 -13 5 -14 0 -19 -2 -12 -5z"/>
<path d="M1750 7719 c0 -5 5 -7 10 -4 6 3 10 8 10 11 0 2 -4 4 -10 4 -5 0 -10
-5 -10 -11z"/>
<path d="M2765 7720 c-3 -5 -1 -10 4 -10 6 0 11 5 11 10 0 6 -2 10 -4 10 -3 0
-8 -4 -11 -10z"/>
<path d="M2495 7710 c28 -12 37 -12 30 0 -3 6 -16 10 -28 9 -21 0 -21 -1 -2
-9z"/>
<path d="M2615 7710 c-3 -5 -1 -10 4 -10 6 0 11 5 11 10 0 6 -2 10 -4 10 -3 0
-8 -4 -11 -10z"/>
<path d="M1618 7703 c7 -3 16 -2 19 1 4 3 -2 6 -13 5 -11 0 -14 -3 -6 -6z"/>
<path d="M2535 7675 c-22 -13 -33 -25 -24 -25 8 0 20 5 26 11 6 6 19 12 29 13
10 2 20 8 22 14 6 18 -9 14 -53 -13z"/>
<path d="M2730 7680 c0 -5 7 -10 16 -10 8 0 12 5 9 10 -3 6 -10 10 -16 10 -5
0 -9 -4 -9 -10z"/>
<path d="M2630 7650 c0 -5 -11 -10 -25 -10 -14 0 -25 -4 -25 -10 0 -12 2 -12
34 0 21 7 26 6 26 -5 0 -8 7 -15 15 -15 8 0 15 -9 15 -20 0 -11 5 -20 11 -20
5 0 7 5 4 10 -3 6 0 10 7 10 7 0 2 8 -12 18 -15 10 -24 24 -22 35 2 10 -3 17
-12 17 -9 0 -16 -4 -16 -10z"/>
<path d="M2739 7629 c-10 -6 -7 -9 14 -9 29 0 35 5 14 13 -8 3 -20 1 -28 -4z"/>
<path d="M2500 7620 c0 -6 7 -10 15 -10 8 0 15 2 15 4 0 2 -7 6 -15 10 -8 3
-15 1 -15 -4z"/>
<path d="M1628 7613 c6 -2 18 -2 25 0 6 3 1 5 -13 5 -14 0 -19 -2 -12 -5z"/>
<path d="M2715 7590 c-3 -5 -1 -10 4 -10 6 0 11 5 11 10 0 6 -2 10 -4 10 -3 0
-8 -4 -11 -10z"/>
<path d="M2658 7551 c8 -4 13 -11 13 -15 -2 -17 0 -19 11 -8 10 10 10 15 -2
22 -8 5 -19 10 -25 10 -5 0 -4 -4 3 -9z"/>
<path d="M2588 7533 c7 -3 16 -2 19 1 4 3 -2 6 -13 5 -11 0 -14 -3 -6 -6z"/>
<path d="M1634 7505 c-16 -12 -17 -14 -2 -15 9 0 18 -6 21 -12 4 -10 7 -10 18
0 11 10 10 12 -4 12 -25 0 -21 18 6 23 20 4 20 4 1 6 -11 0 -29 -6 -40 -14z"/>
<path d="M1750 7511 c0 -5 5 -13 10 -16 6 -3 10 -2 10 4 0 5 -4 13 -10 16 -5
3 -10 2 -10 -4z"/>
<path d="M2656 7501 c-19 -7 -19 -8 -1 -15 16 -6 17 -9 5 -16 -13 -8 -13 -10
1 -10 11 0 17 9 17 25 0 14 -1 25 -2 24 0 0 -10 -4 -20 -8z"/>
<path d="M1720 7480 c0 -5 5 -10 10 -10 6 0 10 5 10 10 0 6 -4 10 -10 10 -5 0
-10 -4 -10 -10z"/>
<path d="M1595 7469 c9 -13 47 -28 58 -22 5 3 0 11 -10 19 -21 16 -57 19 -48
3z"/>
<path d="M1680 7450 c0 -12 8 -12 35 0 18 8 17 9 -7 9 -16 1 -28 -3 -28 -9z"/>
<path d="M1715 7430 c-3 -5 -1 -10 4 -10 6 0 11 5 11 10 0 6 -2 10 -4 10 -3 0
-8 -4 -11 -10z"/>
<path d="M2560 7280 c0 -5 4 -10 9 -10 6 0 13 5 16 10 3 6 -1 10 -9 10 -9 0
-16 -4 -16 -10z"/>
<path d="M1838 7223 c7 -3 16 -2 19 1 4 3 -2 6 -13 5 -11 0 -14 -3 -6 -6z"/>
<path d="M1891 7216 c-24 -13 -24 -13 8 -12 17 1 31 6 31 14 0 15 -9 15 -39
-2z"/>
<path d="M2068 7213 c7 -3 16 -2 19 1 4 3 -2 6 -13 5 -11 0 -14 -3 -6 -6z"/>
<path d="M2550 7211 c0 -5 5 -13 10 -16 6 -3 10 -2 10 4 0 5 -4 13 -10 16 -5
3 -10 2 -10 -4z"/>
<path d="M1892 7163 c-29 -33 -28 -37 8 -18 29 15 38 29 22 39 -4 2 -17 -7
-30 -21z"/>
<path d="M2045 7180 c3 -5 11 -10 16 -10 6 0 7 5 4 10 -3 6 -11 10 -16 10 -6
0 -7 -4 -4 -10z"/>
<path d="M2476 7175 c-4 -13 -2 -14 14 -5 23 13 26 20 6 20 -8 0 -16 -7 -20
-15z"/>
<path d="M2575 7180 c-3 -5 1 -10 9 -10 9 0 16 5 16 10 0 6 -4 10 -9 10 -6 0
-13 -4 -16 -10z"/>
<path d="M1807 7173 c-4 -3 -7 -17 -7 -30 0 -16 6 -23 20 -23 25 0 25 9 3 26
-17 13 -17 13 0 14 9 0 17 5 17 10 0 11 -23 14 -33 3z"/>
<path d="M1947 7155 c-10 -14 -13 -25 -7 -25 5 0 10 3 10 8 0 4 23 8 50 9 43
1 49 -1 39 -13 -7 -8 -18 -13 -26 -10 -8 3 -11 1 -8 -4 10 -16 37 -12 50 7 11
15 9 20 -16 35 -35 21 -43 22 -36 5 3 -8 -3 -13 -14 -13 -12 0 -18 5 -15 13 9
21 -8 14 -27 -12z"/>
<path d="M2485 7150 c-3 -5 -2 -10 4 -10 5 0 13 5 16 10 3 6 2 10 -4 10 -5 0
-13 -4 -16 -10z"/>
<path d="M2514 7135 c-19 -14 -19 -14 2 -15 12 0 21 6 21 15 0 18 1 18 -23 0z"/>
<path d="M1853 7113 c-15 -5 -18 -33 -4 -33 5 0 11 9 14 20 3 11 4 20 4 19 -1
0 -8 -3 -14 -6z"/>
<path d="M1930 7099 c0 -5 5 -7 10 -4 6 3 10 8 10 11 0 2 -4 4 -10 4 -5 0 -10
-5 -10 -11z"/>
<path d="M2480 7100 c0 -5 5 -10 10 -10 6 0 10 5 10 10 0 6 -4 10 -10 10 -5 0
-10 -4 -10 -10z"/>
<path d="M2048 7093 c7 -3 16 -2 19 1 4 3 -2 6 -13 5 -11 0 -14 -3 -6 -6z"/>
<path d="M2010 7079 c0 -5 5 -7 10 -4 6 3 10 8 10 11 0 2 -4 4 -10 4 -5 0 -10
-5 -10 -11z"/>
<path d="M2030 7059 c0 -6 -9 -9 -20 -6 -11 3 -20 1 -20 -5 0 -6 14 -8 35 -4
29 6 34 4 29 -9 -7 -17 11 -21 21 -4 4 6 -1 17 -11 24 -23 17 -34 19 -34 4z"/>
<path d="M1928 7038 c5 -5 16 -8 23 -6 8 3 3 7 -10 11 -17 4 -21 3 -13 -5z"/>
<path d="M7190 8095 c-14 -16 -3 -20 19 -6 8 5 9 11 3 15 -5 3 -15 -1 -22 -9z"/>
<path d="M7185 8060 c-3 -5 1 -10 9 -10 9 0 16 5 16 10 0 6 -4 10 -9 10 -6 0
-13 -4 -16 -10z"/>
<path d="M7210 8000 c0 -5 5 -10 10 -10 6 0 10 5 10 10 0 6 -4 10 -10 10 -5 0
-10 -4 -10 -10z"/>
<path d="M7356 7994 c-18 -17 -21 -50 -6 -59 6 -4 10 -145 10 -390 0 -250 4
-386 10 -390 12 -7 91 48 135 95 l30 31 0 292 0 291 32 7 c17 3 96 9 175 13
113 5 148 11 167 25 37 26 65 67 58 85 -6 14 -42 16 -301 16 -254 0 -297 -2
-310 -16z"/>
<path d="M4780 7003 c-308 -23 -575 -97 -838 -234 -167 -87 -285 -166 -417
-280 -368 -318 -610 -746 -697 -1234 -29 -162 -32 -539 -5 -685 134 -718 530
-1251 1162 -1561 300 -146 575 -209 920 -209 512 -1 949 155 1345 479 189 155
322 308 455 521 150 243 250 530 291 841 22 166 14 455 -16 619 -66 359 -208
675 -428 954 -135 173 -366 375 -564 494 -162 98 -394 192 -593 241 -118 28
-194 40 -350 51 -136 10 -172 10 -265 3z m379 -108 c456 -60 854 -257 1176
-581 276 -278 465 -637 544 -1032 142 -711 -130 -1471 -689 -1928 -608 -496
-1444 -602 -2136 -270 -157 75 -239 125 -378 229 -355 267 -603 644 -715 1088
-128 505 -51 1071 205 1505 279 476 735 818 1265 948 223 55 505 71 728 41z"/>
<path d="M4755 6594 c-16 -2 -64 -9 -105 -15 -527 -76 -1014 -426 -1245 -894
-103 -209 -163 -406 -184 -607 -59 -535 126 -1042 517 -1419 120 -117 214
-180 407 -275 423 -207 874 -238 1312 -90 296 100 538 266 749 512 175 204
307 479 365 756 27 132 37 404 19 545 -93 750 -662 1345 -1405 1469 -88 14
-371 27 -430 18z m333 -35 c637 -69 1188 -510 1396 -1119 68 -201 80 -277 80
-535 1 -251 -6 -306 -65 -500 -134 -439 -468 -825 -873 -1010 -488 -222 -1025
-213 -1489 27 -174 89 -272 158 -388 269 -221 213 -382 492 -457 794 -39 154
-47 227 -46 410 1 296 51 500 189 776 119 238 261 407 485 574 324 243 756
359 1168 314z"/>
<path d="M4799 6129 c-347 -29 -667 -206 -880 -488 -93 -123 -184 -334 -225
-521 -23 -106 -24 -337 -1 -453 34 -170 93 -310 195 -463 332 -495 1004 -677
1549 -418 427 203 703 640 703 1114 0 331 -126 635 -359 869 -263 264 -610
391 -982 360z m229 -30 c511 -56 911 -400 1048 -904 25 -91 27 -116 28 -285 1
-210 -14 -294 -84 -467 -105 -261 -334 -504 -595 -628 -509 -243 -1137 -92
-1475 356 -307 408 -327 924 -53 1382 58 97 191 240 293 316 176 131 398 214
625 234 82 7 118 7 213 -4z"/>
<path d="M4809 6009 c-366 -32 -704 -252 -876 -569 -108 -200 -158 -448 -134
-660 30 -254 130 -467 307 -650 580 -602 1591 -373 1858 421 153 456 -10 962
-403 1252 -206 152 -489 230 -752 206z m251 -109 c78 -12 200 -48 200 -58 0
-4 -25 -52 -56 -107 -62 -111 -116 -174 -184 -212 -25 -15 -62 -42 -82 -61
l-37 -35 -21 25 c-11 14 -53 47 -95 73 -56 35 -86 62 -119 108 -42 59 -121
206 -114 212 13 12 150 47 228 59 55 8 219 5 280 -4z m451 -191 c114 -84 224
-212 289 -337 12 -23 20 -48 17 -55 -7 -18 -205 -67 -273 -67 -33 0 -84 7
-114 15 -30 8 -77 15 -104 15 l-48 0 4 32 c3 17 -3 72 -13 122 -15 73 -16 103
-8 151 9 52 53 205 66 228 6 11 102 -44 184 -104z m-998 10 c38 -110 45 -206
22 -299 -10 -39 -15 -87 -12 -106 l6 -34 -46 0 c-25 0 -73 -7 -107 -16 -79
-21 -184 -14 -294 18 -45 14 -85 28 -88 31 -11 10 66 143 130 223 35 44 100
110 145 146 84 67 188 130 206 124 5 -1 23 -40 38 -87z m186 -252 c25 -17 58
-38 72 -45 14 -8 34 -27 43 -44 56 -94 -74 -201 -158 -129 -41 36 -48 67 -31
132 8 33 15 74 15 90 0 16 3 29 6 29 4 0 27 -15 53 -33z m475 -47 c23 -106 21
-127 -13 -161 -23 -23 -38 -29 -71 -29 -52 0 -76 13 -95 50 -23 45 -19 84 13
115 25 25 144 106 149 102 1 -2 9 -36 17 -77z m-246 -204 c29 -49 92 -79 165
-79 l57 0 0 -55 c0 -67 33 -130 85 -162 l35 -21 -42 -32 c-60 -47 -80 -89 -76
-163 l4 -61 -31 8 c-16 5 -40 9 -53 9 -40 0 -116 -40 -142 -74 l-25 -34 -40
43 c-46 50 -105 70 -171 60 l-43 -6 9 32 c19 65 -24 158 -92 199 l-30 18 31
17 c18 9 45 37 62 63 23 37 29 57 29 102 l0 57 59 0 c72 0 127 26 160 76 13
20 25 37 27 37 1 0 11 -16 22 -34z m-818 -49 c72 -43 114 -82 155 -147 24 -37
58 -78 77 -90 18 -13 35 -25 37 -27 3 -2 -14 -19 -36 -38 -23 -19 -55 -57 -71
-83 -42 -66 -69 -95 -125 -132 -67 -44 -178 -93 -188 -83 -5 5 -19 45 -31 88
-18 67 -22 107 -22 245 -1 162 7 218 44 315 l9 24 58 -25 c32 -14 74 -35 93
-47z m1764 26 c28 -86 48 -251 41 -343 -8 -98 -31 -220 -51 -268 l-14 -34 -99
52 c-108 57 -157 99 -207 176 -18 29 -52 69 -76 89 -25 22 -38 39 -31 42 30
11 69 51 109 114 49 77 116 132 227 185 39 18 75 34 78 34 4 0 14 -21 23 -47z
m-1331 -43 c60 -66 16 -170 -73 -170 -51 0 -76 13 -94 49 -9 16 -31 49 -50 74
l-35 46 37 6 c20 4 57 13 82 20 61 18 100 11 133 -25z m850 26 c29 -8 69 -17
90 -21 l38 -6 -29 -37 c-16 -20 -39 -54 -51 -75 -27 -45 -48 -57 -96 -57 -47
0 -71 13 -90 50 -29 57 -11 124 40 146 38 17 37 17 98 0z m-850 -396 c39 -44
38 -101 -3 -142 -34 -34 -50 -34 -186 -6 l-61 13 52 75 c28 41 62 81 76 88 37
19 90 7 122 -28z m864 18 c8 -7 37 -44 63 -83 l48 -71 -66 -13 c-136 -27 -148
-26 -182 7 -71 71 -11 190 88 177 19 -2 41 -10 49 -17z m-642 -242 c56 -24 82
-97 50 -144 -12 -17 -133 -104 -166 -120 -4 -1 -9 19 -12 45 -3 26 -9 73 -12
103 -6 48 -4 59 15 83 37 46 71 55 125 33z m360 0 c19 -8 41 -28 50 -46 15
-29 15 -38 -1 -126 -10 -52 -21 -94 -25 -94 -4 0 -12 7 -19 15 -7 8 -39 31
-72 51 -62 38 -94 84 -82 121 14 44 31 67 59 79 39 17 49 17 90 0z m-718 -32
c30 -9 70 -14 88 -12 l34 4 -5 -41 c-4 -23 1 -66 10 -101 9 -34 16 -82 16
-106 0 -51 -31 -178 -57 -238 l-18 -40 -50 26 c-108 58 -239 170 -320 275 -39
49 -115 177 -115 191 0 5 168 53 220 62 40 7 137 -3 197 -20z m1315 -10 c54
-15 98 -32 98 -38 0 -20 -78 -145 -131 -213 -29 -35 -84 -92 -123 -125 -69
-58 -209 -148 -231 -148 -13 0 -58 131 -75 216 -10 51 -9 74 4 139 9 42 16 99
16 125 l0 48 38 -5 c21 -2 69 5 112 16 91 25 152 22 292 -15z m-787 -185 c16
-16 52 -43 81 -59 71 -41 132 -110 187 -211 26 -47 47 -91 47 -97 0 -17 -86
-41 -209 -59 -98 -14 -132 -14 -227 -5 -103 11 -238 43 -257 61 -10 10 80 168
129 227 19 24 67 63 105 85 39 23 78 53 87 65 9 13 19 23 22 23 3 0 18 -13 35
-30z"/>
<path d="M4767 5032 l-137 -137 138 -138 138 -138 134 136 c74 75 134 141 132
147 -3 9 -259 268 -265 268 -1 0 -64 -62 -140 -138z m71 -69 c-62 -62 -63 -63
-118 -63 l-55 0 115 115 115 116 3 -52 c3 -52 3 -53 -60 -116z m197 50 l105
-108 -52 -3 c-51 -3 -52 -3 -114 59 -61 61 -63 64 -61 111 1 26 6 48 10 48 4
0 55 -48 112 -107z m-72 -175 l-57 -58 -58 57 -58 57 57 58 57 58 58 -57 58
-57 -57 -58z m-126 -10 c62 -62 63 -63 63 -118 l0 -55 -110 110 c-60 60 -110
113 -110 117 0 5 21 8 47 8 45 0 51 -4 110 -62z m293 47 c-28 -34 -204 -205
-210 -205 -4 0 -7 22 -6 50 1 46 5 53 61 110 58 59 61 60 113 60 47 0 53 -2
42 -15z"/>
<path d="M8422 5278 c-14 -17 -21 -830 -7 -835 6 -1 39 16 75 40 l65 42 3 229
2 229 29 -27 c24 -23 36 -27 72 -24 l44 3 45 87 c25 47 48 90 52 93 4 4 33
-33 64 -81 64 -100 78 -114 111 -114 32 0 46 19 123 166 37 70 75 131 84 136
9 5 16 20 16 34 0 24 -1 25 -72 22 l-73 -3 -6 -42 c-6 -50 -48 -143 -63 -143
-6 0 -36 45 -66 100 l-55 100 -53 0 -53 0 -41 -90 c-23 -49 -44 -90 -48 -90
-4 0 -29 39 -56 88 l-50 87 -66 3 c-44 2 -68 -1 -76 -10z"/>
<path d="M1320 4860 c0 -5 5 -10 10 -10 6 0 10 5 10 10 0 6 -4 10 -10 10 -5 0
-10 -4 -10 -10z"/>
<path d="M1338 4663 c7 -3 16 -2 19 1 4 3 -2 6 -13 5 -11 0 -14 -3 -6 -6z"/>
<path d="M7320 2572 c-6 -2 -10 -32 -10 -67 0 -52 4 -69 23 -92 64 -78 207
-272 207 -282 0 -10 -86 -125 -204 -271 -26 -33 -36 -55 -36 -82 0 -68 0 -68
301 -70 148 -1 281 -2 297 -2 26 -1 28 3 59 114 17 63 32 127 32 143 1 26 -1
27 -51 27 l-53 0 -30 -52 c-50 -86 -67 -93 -206 -92 -65 0 -121 3 -125 6 -3 4
46 70 110 148 64 77 116 145 116 151 0 6 -43 67 -96 136 -59 78 -93 131 -89
141 4 12 21 14 102 8 54 -4 105 -12 115 -17 10 -6 32 -34 48 -63 28 -49 34
-54 72 -59 47 -6 68 4 62 31 -22 102 -55 227 -61 233 -8 8 -563 18 -583 11z"/>
<path d="M1973 2522 c-153 -3 -153 -3 -153 -26 0 -29 39 -87 68 -102 15 -7 71
-10 160 -8 75 2 149 2 165 -2 l27 -6 0 -349 c0 -299 2 -350 15 -355 20 -8 93
29 140 69 l38 33 2 335 c1 184 -1 351 -3 371 l-4 37 -152 3 c-83 2 -220 2
-303 0z"/>
<path d="M4823 1449 c-160 -31 -260 -188 -279 -440 -11 -139 27 -251 116 -339
85 -86 182 -118 290 -96 149 31 264 161 292 330 16 95 -18 271 -71 374 -67
130 -206 199 -348 171z m144 -158 c65 -40 113 -166 114 -303 1 -83 -11 -133
-47 -189 -41 -66 -115 -101 -179 -85 -40 10 -101 71 -124 126 -30 69 -35 149
-17 248 27 151 83 222 175 222 28 0 59 -8 78 -19z"/>
</g>
</svg>
